STARTFONT 2.1
FONT -FontForge-Courgette-Book-R-Normal--32-320-72-72-P-166-ISO10646-1
SIZE 32 72 72
FONTBOUNDINGBOX 42 40 -6 -9
COMMENT "Generated by fontforge, http://fontforge.sourceforge.net"
COMMENT "Copyright (c) 2012, Sorkin Type Co (www.sorkintype.com) with Reserved Font Name "Courgette"."
STARTPROPERTIES 40
FOUNDRY "FontForge"
FAMILY_NAME "Courgette"
WEIGHT_NAME "Book"
SLANT "R"
SETWIDTH_NAME "Normal"
ADD_STYLE_NAME ""
PIXEL_SIZE 32
POINT_SIZE 320
RESOLUTION_X 72
RESOLUTION_Y 72
SPACING "P"
AVERAGE_WIDTH 166
CHARSET_REGISTRY "ISO10646"
CHARSET_ENCODING "1"
FONTNAME_REGISTRY ""
CHARSET_COLLECTIONS "ISO8859-2 ISO8859-9 ISO8859-4 ISO10646-1"
FONT_NAME "Courgette-Regular"
FACE_NAME "Courgette Regular"
COPYRIGHT "Copyright (c) 2012, Sorkin Type Co (www.sorkintype.com) with Reserved Font Name "Courgette"."
FONT_VERSION "1.002"
FONT_ASCENT 26
FONT_DESCENT 6
UNDERLINE_POSITION -3
UNDERLINE_THICKNESS 2
X_HEIGHT 15
CAP_HEIGHT 23
DEFAULT_CHAR 1
RAW_ASCENT 799
RAW_DESCENT 200
NORM_SPACE 10
RELATIVE_WEIGHT 40
RELATIVE_SETWIDTH 50
SUPERSCRIPT_X 0
SUPERSCRIPT_Y 15
SUPERSCRIPT_SIZE 20
SUBSCRIPT_X 0
SUBSCRIPT_Y 4
SUBSCRIPT_SIZE 20
AVG_LOWERCASE_WIDTH 160
AVG_UPPERCASE_WIDTH 188
ENDPROPERTIES
CHARS 407
STARTCHAR .null.dup1
ENCODING 0
SWIDTH 0 0
DWIDTH 0 0
BBX 1 1 0 0
BITMAP
00
ENDCHAR
STARTCHAR uni0001
ENCODING 1
SWIDTH 0 0
DWIDTH 0 0
BBX 1 1 0 0
BITMAP
00
ENDCHAR
STARTCHAR uni0002
ENCODING 2
SWIDTH 0 0
DWIDTH 0 0
BBX 1 1 0 0
BITMAP
00
ENDCHAR
STARTCHAR uni0003
ENCODING 3
SWIDTH 0 0
DWIDTH 0 0
BBX 1 1 0 0
BITMAP
00
ENDCHAR
STARTCHAR uni0004
ENCODING 4
SWIDTH 0 0
DWIDTH 0 0
BBX 1 1 0 0
BITMAP
00
ENDCHAR
STARTCHAR uni0005
ENCODING 5
SWIDTH 0 0
DWIDTH 0 0
BBX 1 1 0 0
BITMAP
00
ENDCHAR
STARTCHAR uni0006
ENCODING 6
SWIDTH 0 0
DWIDTH 0 0
BBX 1 1 0 0
BITMAP
00
ENDCHAR
STARTCHAR uni0007
ENCODING 7
SWIDTH 0 0
DWIDTH 0 0
BBX 1 1 0 0
BITMAP
00
ENDCHAR
STARTCHAR uni0008
ENCODING 8
SWIDTH 0 0
DWIDTH 0 0
BBX 1 1 0 0
BITMAP
00
ENDCHAR
STARTCHAR uni0009
ENCODING 9
SWIDTH 0 0
DWIDTH 0 0
BBX 1 1 0 0
BITMAP
00
ENDCHAR
STARTCHAR nonmarkingreturn
ENCODING 13
SWIDTH 0 0
DWIDTH 0 0
BBX 1 1 0 0
BITMAP
00
ENDCHAR
STARTCHAR uni0015
ENCODING 21
SWIDTH 0 0
DWIDTH 0 0
BBX 1 1 0 0
BITMAP
00
ENDCHAR
STARTCHAR uni0016
ENCODING 22
SWIDTH 0 0
DWIDTH 0 0
BBX 1 1 0 0
BITMAP
00
ENDCHAR
STARTCHAR uni0017
ENCODING 23
SWIDTH 0 0
DWIDTH 0 0
BBX 1 1 0 0
BITMAP
00
ENDCHAR
STARTCHAR uni0018
ENCODING 24
SWIDTH 0 0
DWIDTH 0 0
BBX 1 1 0 0
BITMAP
00
ENDCHAR
STARTCHAR uni0019
ENCODING 25
SWIDTH 0 0
DWIDTH 0 0
BBX 1 1 0 0
BITMAP
00
ENDCHAR
STARTCHAR space
ENCODING 32
SWIDTH 307 0
DWIDTH 10 0
BBX 1 1 0 0
BITMAP
00
ENDCHAR
STARTCHAR exclam
ENCODING 33
SWIDTH 417 0
DWIDTH 13 0
BBX 12 24 3 0
BITMAP
00F0
01E0
03E0
03C0
07C0
0780
0F00
0F00
0E00
1E00
1C00
1C00
1C00
3800
3800
3000
3000
3000
0000
4000
F000
F800
F000
F000
ENDCHAR
STARTCHAR quotedbl
ENCODING 34
SWIDTH 437 0
DWIDTH 14 0
BBX 13 8 4 18
BITMAP
3C78
7CF0
78E0
71E0
71C0
E1C0
C180
4100
ENDCHAR
STARTCHAR numbersign
ENCODING 35
SWIDTH 725 0
DWIDTH 23 0
BBX 21 24 2 0
BITMAP
001860
0038E0
0078E0
0071C0
0071C0
00E1C0
00E380
00E380
1FFFF8
3FFFF8
3FFFF0
018600
038600
038E00
030E00
7FFFE0
FFFFE0
FFFFC0
0E1800
0E3800
0C3000
1C3000
187000
186000
ENDCHAR
STARTCHAR dollar
ENCODING 36
SWIDTH 545 0
DWIDTH 17 0
BBX 17 33 2 -4
BITMAP
000100
000380
000700
000E00
000E00
007C00
01FE00
078700
070300
0E0380
1E0380
1C0780
1C0F00
1C0F00
1E1E00
1E3E00
1F0800
1F0000
0F8000
078000
07C000
03C000
21E000
E1E000
E0E000
E0C000
F1C000
FF8000
3E0000
300000
300000
700000
600000
ENDCHAR
STARTCHAR percent
ENCODING 37
SWIDTH 876 0
DWIDTH 28 0
BBX 24 24 2 0
BITMAP
07800E
1FC01C
3CE03C
38E078
78E070
70E0E0
F0E1C0
E1C3C0
E3C780
738F00
7F0E00
1C1C00
003838
0078FE
00F1E6
01E3C7
01C387
03878F
07070E
0E070E
1E071E
1C073C
3803F8
7001E0
ENDCHAR
STARTCHAR ampersand
ENCODING 38
SWIDTH 563 0
DWIDTH 18 0
BBX 17 24 1 0
BITMAP
007E00
01FF00
07C180
0F8180
1E0380
1E0780
3C0F80
3C1F00
3C1E00
1C0800
1C8000
0FE000
0FC000
1E0000
3C0000
787F80
707F80
F03E00
F03800
F03800
F07000
70E000
7FC000
1F0000
ENDCHAR
STARTCHAR quotesingle
ENCODING 39
SWIDTH 231 0
DWIDTH 7 0
BBX 6 8 4 18
BITMAP
3C
7C
78
70
70
E0
C0
40
ENDCHAR
STARTCHAR parenleft
ENCODING 40
SWIDTH 478 0
DWIDTH 15 0
BBX 16 36 3 -8
BITMAP
0003
000E
001C
0038
0070
00E0
01C0
0380
0780
0700
0F00
0E00
1E00
1C00
3C00
3800
3800
7800
7800
7000
7000
7000
7000
F000
F000
7000
7000
7000
7000
7800
3800
3800
1C00
1C00
0E00
0700
ENDCHAR
STARTCHAR parenright
ENCODING 41
SWIDTH 478 0
DWIDTH 15 0
BBX 16 36 -3 -8
BITMAP
00E0
0070
0038
003C
001C
001C
000E
000E
000E
000E
000F
000F
000F
000F
000F
000E
000E
000E
001E
001E
001C
003C
0038
0038
0070
0070
00E0
01E0
01C0
0380
0700
0E00
1C00
3800
7000
C000
ENDCHAR
STARTCHAR asterisk
ENCODING 42
SWIDTH 518 0
DWIDTH 17 0
BBX 12 12 4 12
BITMAP
0380
0780
4700
6700
7670
75F0
3FC0
1E00
3F00
7380
C1C0
8180
ENDCHAR
STARTCHAR plus
ENCODING 43
SWIDTH 617 0
DWIDTH 20 0
BBX 16 16 2 4
BITMAP
0180
0180
0180
0180
0180
0180
0180
7FFF
FFFF
0180
0180
0180
0180
0180
0180
0180
ENDCHAR
STARTCHAR comma
ENCODING 44
SWIDTH 312 0
DWIDTH 10 0
BBX 6 9 0 -5
BITMAP
38
7C
3C
3C
3C
38
30
60
C0
ENDCHAR
STARTCHAR hyphen
ENCODING 45
SWIDTH 452 0
DWIDTH 14 0
BBX 9 3 3 8
BITMAP
7F80
FF80
FF00
ENDCHAR
STARTCHAR period
ENCODING 46
SWIDTH 270 0
DWIDTH 9 0
BBX 5 5 1 0
BITMAP
70
F8
F8
F0
60
ENDCHAR
STARTCHAR slash
ENCODING 47
SWIDTH 405 0
DWIDTH 13 0
BBX 21 34 -3 -5
BITMAP
000008
000018
000038
000070
000070
0000E0
0000E0
0001C0
000380
000380
000700
000700
000E00
000E00
001C00
003800
003800
007000
007000
00E000
00E000
01C000
01C000
038000
070000
070000
0E0000
0E0000
1C0000
1C0000
380000
700000
700000
E00000
ENDCHAR
STARTCHAR zero
ENCODING 48
SWIDTH 621 0
DWIDTH 20 0
BBX 18 24 2 0
BITMAP
003E00
00FF80
01E380
03C1C0
0781C0
0F01C0
0E01C0
1E01C0
1C03C0
3C03C0
380380
780780
780780
700700
F00F00
F00F00
F01E00
E01C00
E03C00
E07800
E0F000
71E000
7FC000
1F0000
ENDCHAR
STARTCHAR one
ENCODING 49
SWIDTH 405 0
DWIDTH 13 0
BBX 11 24 2 0
BITMAP
00C0
03E0
07E0
0FE0
3FE0
3DC0
01C0
03C0
0380
0380
0780
0700
0700
0E00
0E00
0E00
1C00
1C00
3800
3800
7000
6000
6000
C000
ENDCHAR
STARTCHAR two
ENCODING 50
SWIDTH 524 0
DWIDTH 17 0
BBX 17 24 0 0
BITMAP
007C00
01FF00
03C700
078380
070380
0F0380
0F0380
0F8780
078F00
070F00
001E00
003C00
007C00
00F800
01E000
03C000
078000
0F0000
1E0000
380000
700400
6FFC00
FFFC00
60F800
ENDCHAR
STARTCHAR three
ENCODING 51
SWIDTH 537 0
DWIDTH 17 0
BBX 17 24 1 0
BITMAP
007C00
01FE00
078700
070700
0E0780
0E0780
1E0700
1F0700
0F0F00
061E00
003E00
00FC00
03F800
03E000
03F000
007800
007800
307800
787800
F07000
F0F000
F1E000
7FC000
3F0000
ENDCHAR
STARTCHAR four
ENCODING 52
SWIDTH 529 0
DWIDTH 17 0
BBX 15 24 2 0
BITMAP
0700
0700
0700
0F00
0F00
0F00
1E18
1E1C
3C1C
3C3C
783C
7038
F078
E070
FFFC
3FFE
01E0
01C0
01C0
0380
0380
0700
0600
0400
ENDCHAR
STARTCHAR five
ENCODING 53
SWIDTH 540 0
DWIDTH 17 0
BBX 18 24 1 0
BITMAP
01E0C0
01FFC0
03FFC0
038780
038000
070000
070000
0E0000
0FF000
1FFC00
1E3C00
1C1E00
081E00
001E00
001E00
001C00
203C00
703C00
F07800
E07800
E0F000
E1E000
7FC000
3F0000
ENDCHAR
STARTCHAR six
ENCODING 54
SWIDTH 554 0
DWIDTH 18 0
BBX 16 24 2 0
BITMAP
003E
00FF
03C3
0783
0707
0E0F
1E1E
1C0C
3C00
3800
79F0
7FF8
7E3C
FC1C
F81C
F01C
F01C
F03C
F038
F078
70F0
71E0
3FC0
1F00
ENDCHAR
STARTCHAR seven
ENCODING 55
SWIDTH 473 0
DWIDTH 15 0
BBX 14 24 4 0
BITMAP
C078
FFFC
FFF8
7C38
0070
00E0
01E0
01C0
0380
0780
0F00
0E00
1E00
3C00
3800
7800
7000
F000
F000
E000
E000
E000
E000
E000
ENDCHAR
STARTCHAR eight
ENCODING 56
SWIDTH 524 0
DWIDTH 17 0
BBX 16 24 2 0
BITMAP
01F8
03FC
061E
0E0E
1C0F
1C0F
1C0F
1C0E
1E0E
1E1C
0F3C
0FF0
07E0
07C0
1FC0
39E0
71E0
E0E0
E0E0
E060
E0E0
F0C0
7F80
3F00
ENDCHAR
STARTCHAR nine
ENCODING 57
SWIDTH 554 0
DWIDTH 18 0
BBX 16 24 2 0
BITMAP
00F8
03FC
070E
0E0E
1E0F
3C0F
3C0F
380F
380E
781E
781E
383E
387E
3FFC
0F9C
0038
0038
0078
7070
E0E0
E1C0
E380
FF00
7C00
ENDCHAR
STARTCHAR colon
ENCODING 58
SWIDTH 312 0
DWIDTH 10 0
BBX 8 15 1 0
BITMAP
1E
1F
3F
1E
0C
00
00
00
00
00
70
F8
F8
F8
70
ENDCHAR
STARTCHAR semicolon
ENCODING 59
SWIDTH 312 0
DWIDTH 10 0
BBX 9 19 0 -5
BITMAP
0F00
0F80
0F80
0F00
0600
0000
0000
0000
0000
0000
3800
7C00
3C00
3C00
3C00
3800
3000
6000
C000
ENDCHAR
STARTCHAR less
ENCODING 60
SWIDTH 637 0
DWIDTH 20 0
BBX 16 17 2 1
BITMAP
0003
000F
001E
0078
01F0
07C0
1F00
3E00
F800
7C00
1E00
0F80
03E0
00F8
003C
000F
0007
ENDCHAR
STARTCHAR equal
ENCODING 61
SWIDTH 617 0
DWIDTH 20 0
BBX 16 8 2 8
BITMAP
7FFF
7FFF
0000
0000
0000
0000
7FFF
FFFF
ENDCHAR
STARTCHAR greater
ENCODING 62
SWIDTH 606 0
DWIDTH 19 0
BBX 16 17 2 1
BITMAP
6000
F800
3E00
0F80
07C0
01F0
007C
001F
000F
003E
00F8
01E0
0780
1F00
7C00
F000
C000
ENDCHAR
STARTCHAR question
ENCODING 63
SWIDTH 516 0
DWIDTH 17 0
BBX 14 24 3 0
BITMAP
01F0
07F8
0F1C
0E0C
1E0C
1E1C
1E3C
0C3C
00F8
01F0
03E0
07C0
0F00
1E00
3C00
3800
3000
1000
0000
F000
F800
F800
F000
E000
ENDCHAR
STARTCHAR at
ENCODING 64
SWIDTH 905 0
DWIDTH 29 0
BBX 26 26 2 -4
BITMAP
000FF000
007FFC00
01E00F00
03800780
07000380
0C0001C0
1C0001C0
380F30C0
303FF0C0
7071F0C0
60F0E0C0
E0E0E0C0
E1C1E1C0
E1C1C180
E1C3C380
E3C38300
E3C58700
E1CF9E00
E1F9F800
E0E0E000
F0000000
70000000
38000000
1E018000
0FFF0000
03FC0000
ENDCHAR
STARTCHAR A
ENCODING 65
SWIDTH 615 0
DWIDTH 20 0
BBX 24 24 -3 0
BITMAP
00000F
00003F
0000FE
0001CE
00039E
00071C
000E3C
001C3C
001C38
003878
007070
0077FE
01FFFE
03FFFC
05C0E0
0381E0
0381E0
0701C0
0701C0
0E01C0
1E01C0
3C01F8
F801F8
7000F0
ENDCHAR
STARTCHAR B
ENCODING 66
SWIDTH 551 0
DWIDTH 18 0
BBX 18 24 1 0
BITMAP
03FC00
1FFF00
3F0380
3801C0
1381C0
0781C0
0781C0
0F03C0
1F0380
1E0780
1E1F00
3C3E00
3FF800
3FF800
7C3C00
701C00
701E00
701E00
601C00
E03C00
607800
70F000
7FE000
1F0000
ENDCHAR
STARTCHAR C
ENCODING 67
SWIDTH 533 0
DWIDTH 17 0
BBX 17 24 2 0
BITMAP
003E00
00FF00
01E180
038180
070180
0F0380
1E0780
3C0F80
3C1F00
781E00
781C00
700000
F00000
F00000
E00000
E00000
E00000
E00000
E00000
E01000
F03800
707000
7FF000
1F8000
ENDCHAR
STARTCHAR D
ENCODING 68
SWIDTH 630 0
DWIDTH 20 0
BBX 20 24 1 0
BITMAP
03FC00
1FFF00
3F07C0
1C01C0
0000E0
03C0E0
03C0F0
0780F0
0F80F0
0F00F0
0E00E0
1E00E0
1E01E0
3C01C0
3C03C0
380380
780780
780F00
701E00
703C00
F0F800
71E000
7FC000
3E0000
ENDCHAR
STARTCHAR E
ENCODING 69
SWIDTH 509 0
DWIDTH 16 0
BBX 18 24 1 0
BITMAP
003F00
01FF80
03E1C0
0781C0
0F01C0
0F0380
1E0780
1E1F00
1C1E00
1C0C00
1C0000
1E0000
0FE000
07E000
1F8000
3E0000
7C0000
780000
F00800
F01800
F03800
70F000
7FE000
1F8000
ENDCHAR
STARTCHAR F
ENCODING 70
SWIDTH 518 0
DWIDTH 17 0
BBX 19 24 1 0
BITMAP
1FE060
3FFFE0
7FFFC0
787F80
70F000
60E000
00E000
01E000
01C000
03C000
03C000
03FC00
0FFE00
1FFE00
1F8000
0F0000
0F0000
0E0000
1E0000
1C0000
3C0000
780000
F00000
E00000
ENDCHAR
STARTCHAR G
ENCODING 71
SWIDTH 598 0
DWIDTH 19 0
BBX 18 24 2 0
BITMAP
003E00
00FF00
01E180
03C180
0781C0
0F0380
1E0780
3C0780
3C1F00
781F00
781E00
700000
F00000
F00080
F07F80
E0FF00
E03E00
E03800
E03800
E03000
F07000
70E000
7FC000
1F0000
ENDCHAR
STARTCHAR H
ENCODING 72
SWIDTH 668 0
DWIDTH 21 0
BBX 24 24 -1 0
BITMAP
07E00E
0FF00F
04F00E
00F00E
00E01E
00E01E
01E01C
01E03C
01C03C
01C038
03FFFC
07FFFC
0F8078
0780F0
0700E0
0F00E0
0E01C0
0E01C0
1C01C0
3C0380
380380
7803F0
F003F0
C001C0
ENDCHAR
STARTCHAR I
ENCODING 73
SWIDTH 327 0
DWIDTH 10 0
BBX 11 24 0 0
BITMAP
0FC0
1FE0
0CE0
00E0
01E0
01E0
01E0
01C0
03C0
03C0
0380
0380
0780
0780
0F00
0F00
0E00
1E00
1C00
3C00
3800
7000
F000
C000
ENDCHAR
STARTCHAR J
ENCODING 74
SWIDTH 393 0
DWIDTH 13 0
BBX 19 33 -5 -9
BITMAP
001F80
007FC0
01F9E0
01E1E0
01C1C0
0003C0
0003C0
0003C0
0003C0
000780
000780
000780
000F00
000F00
000F00
001E00
001E00
003C00
003C00
003C00
007800
007800
00F000
00E000
01E000
03C000
03C000
078000
0F0000
1E0000
3C0000
F80000
E00000
ENDCHAR
STARTCHAR K
ENCODING 75
SWIDTH 616 0
DWIDTH 20 0
BBX 22 24 -1 0
BITMAP
07C038
1FE038
0CE03C
01E03C
01E03C
01E078
01E078
01C0F0
03C1E0
03C3C0
03C700
078E00
07BC00
07F000
0FF000
0F7800
0E3C00
1E1E00
1C1E00
3C0F00
380F80
7807C0
F003F8
C001E0
ENDCHAR
STARTCHAR L
ENCODING 76
SWIDTH 517 0
DWIDTH 17 0
BBX 19 24 -1 0
BITMAP
000780
001FC0
003CE0
0078E0
00F0E0
00E0E0
01E1E0
01E3C0
03C7C0
03CF80
038F00
078E00
078000
070000
0F0000
0E0000
1E0000
1C0000
1C0000
380000
78FC00
FFFE00
FFFF00
780300
ENDCHAR
STARTCHAR M
ENCODING 77
SWIDTH 931 0
DWIDTH 30 0
BBX 33 24 -3 0
BITMAP
0000780780
0000F80F80
0003F81F80
0003783F00
0006707700
000EF0EF00
001CE0CE00
0018E1CE00
0039E39E00
0071C39C00
0071C71C00
00E1C73C00
00E3CE3800
01C38E3800
01C39C7800
03839C7800
0703B87000
0703B07000
0E07F0F000
0E07E0F000
1C07E0F000
3803C07E00
F803807E00
E003803C00
ENDCHAR
STARTCHAR N
ENCODING 78
SWIDTH 708 0
DWIDTH 23 0
BBX 24 24 1 0
BITMAP
00781C
00F81E
01F01F
01F00F
03F00F
07700F
06700E
0E700E
0C701C
1C701C
1C701C
387838
387830
307870
707860
7038E0
703CC0
E03DC0
E03D80
E01F80
E01F00
C00F00
C00F00
C00700
ENDCHAR
STARTCHAR O
ENCODING 79
SWIDTH 655 0
DWIDTH 21 0
BBX 19 24 2 0
BITMAP
001F00
00FFC0
01E1C0
03C0E0
0780E0
0F00E0
1E00E0
1E00E0
3C00E0
3C00E0
7801E0
7801E0
7001C0
F003C0
F003C0
F00780
E00780
E00F00
E01E00
E03C00
F07800
70F000
3FE000
1F8000
ENDCHAR
STARTCHAR P
ENCODING 80
SWIDTH 553 0
DWIDTH 18 0
BBX 21 24 -1 0
BITMAP
007F00
03FFE0
07C0F0
0F0070
066078
00F078
00E078
01E078
01E0F0
03C1F0
03C3E0
0387C0
079F80
07FE00
07F000
0F0000
0F0000
1E0000
1E0000
3C0000
380000
780000
F00000
E00000
ENDCHAR
STARTCHAR Q
ENCODING 81
SWIDTH 655 0
DWIDTH 21 0
BBX 21 29 2 -5
BITMAP
003F00
00FF80
01E1C0
0780E0
0700E0
0E00E0
1E00E0
3C00E0
3C01E0
3801E0
7801E0
7003C0
7003C0
700780
F00780
F00F00
701E00
781E00
7C3C00
387800
01E000
07C000
1FE000
3FF800
00FC00
003F00
001FF8
0007F8
0001F0
ENDCHAR
STARTCHAR R
ENCODING 82
SWIDTH 623 0
DWIDTH 20 0
BBX 21 24 -1 0
BITMAP
007F80
03FFE0
07C070
070070
026038
00F038
00E038
01E078
01E070
01C0F0
03C1E0
03C7C0
039F80
07FE00
077800
0F3800
0F1C00
0E1E00
1E0E00
1C0F00
3C0F00
780780
F003F0
E001E0
ENDCHAR
STARTCHAR S
ENCODING 83
SWIDTH 474 0
DWIDTH 15 0
BBX 17 24 1 0
BITMAP
00F800
03FE00
078700
0F0300
0E0300
1E0780
1C0700
1C0F00
1C1F00
1C3E00
1E1C00
1E0000
1F0000
0F8000
078000
07C000
03C000
61E000
E1E000
E0C000
E0C000
E1C000
7F0000
3E0000
ENDCHAR
STARTCHAR T
ENCODING 84
SWIDTH 471 0
DWIDTH 15 0
BBX 18 24 2 0
BITMAP
1FC040
7FFFC0
FFFFC0
F0FF00
E0E000
E0E000
01E000
01E000
01C000
03C000
03C000
038000
078000
078000
070000
0F0000
0F0000
0E0000
1E0000
1C0000
3C0000
380000
F00000
E00000
ENDCHAR
STARTCHAR U
ENCODING 85
SWIDTH 624 0
DWIDTH 20 0
BBX 21 24 1 0
BITMAP
078038
07C038
03C078
03C070
0380F0
0780E0
0701E0
0F03E0
0F03C0
1E07C0
1E07C0
1C0F80
3C0F80
381F80
781F00
703700
707F00
F06E00
E0CE00
E18E00
E38E00
FF0FC0
FE0FC0
780780
ENDCHAR
STARTCHAR V
ENCODING 86
SWIDTH 587 0
DWIDTH 19 0
BBX 20 25 3 0
BITMAP
0000E0
1E01F0
FF00F0
FF80F0
6380F0
0780F0
0780E0
0F01E0
0F01E0
1E03C0
1E0780
3C0F00
3C0F00
781E00
783C00
707800
F0F000
E1E000
E38000
E70000
EE0000
EC0000
F80000
F80000
700000
ENDCHAR
STARTCHAR W
ENCODING 87
SWIDTH 941 0
DWIDTH 30 0
BBX 30 24 2 0
BITMAP
1F000038
7F800078
7F80007C
71C0003C
03C0003C
0780703C
0780F03C
0F03E03C
0F07C03C
1E0FC038
1E1F8038
3C1F8078
3C3F0070
387700F0
78EF00E0
71CF00E0
71CE01C0
F38E0380
F30E0380
E60E0700
EE0E0E00
EC0E1C00
7807F000
3003C000
ENDCHAR
STARTCHAR X
ENCODING 88
SWIDTH 552 0
DWIDTH 18 0
BBX 25 24 -2 0
BITMAP
00180780
00781F00
00783E00
00707800
00707000
0070E000
0071C000
0073C000
00738000
00770000
007E0000
007C0000
003C0000
00780000
007C0000
00FC0000
01DC0000
039E0000
079E0000
0F1F0000
1E0F0000
3C0FF000
7807E000
F003C000
ENDCHAR
STARTCHAR Y
ENCODING 89
SWIDTH 580 0
DWIDTH 19 0
BBX 21 33 1 -9
BITMAP
078038
07C038
03C078
038070
0380F0
0781E0
0701E0
0F03E0
0E03C0
1E07C0
1E07C0
1C0F80
3C0F80
381F00
781F00
703F00
F07E00
F06E00
E0DE00
E19C00
E33C00
FE3800
FC7800
787000
00F000
00E000
01C000
03C000
078000
0F0000
1E0000
7C0000
700000
ENDCHAR
STARTCHAR Z
ENCODING 90
SWIDTH 501 0
DWIDTH 16 0
BBX 19 24 0 0
BITMAP
0C03C0
0FFFE0
0FFDE0
07E3E0
0007C0
000780
000F80
001F00
003E00
007C00
00F800
01F000
03E000
07C000
0F8000
0F0000
1E0000
3C0000
780000
700000
F1FC00
EFFC00
FFFE00
F80600
ENDCHAR
STARTCHAR bracketleft
ENCODING 91
SWIDTH 396 0
DWIDTH 13 0
BBX 17 34 0 -5
BITMAP
000400
001F80
003C00
003800
003800
007800
007000
007000
00F000
00E000
00E000
01E000
01C000
01C000
038000
038000
038000
070000
070000
0F0000
0E0000
0E0000
1E0000
1C0000
1C0000
3C0000
380000
380000
780000
700000
700000
F00000
FE0000
FC0000
ENDCHAR
STARTCHAR backslash
ENCODING 92
SWIDTH 464 0
DWIDTH 15 0
BBX 11 34 1 -5
BITMAP
8000
6000
6000
7000
7000
3000
3000
3800
3800
1800
1800
1C00
1C00
0C00
0C00
0E00
0E00
0600
0700
0700
0700
0300
0380
0380
0380
0180
01C0
01C0
01C0
00C0
00E0
00E0
00E0
0060
ENDCHAR
STARTCHAR bracketright
ENCODING 93
SWIDTH 394 0
DWIDTH 13 0
BBX 17 34 -2 -5
BITMAP
001F00
003F80
000780
000700
000700
000F00
000E00
000E00
001E00
001C00
001C00
003C00
003800
003800
007000
007000
007000
00E000
00E000
00E000
01C000
01C000
01C000
038000
038000
038000
070000
070000
0F0000
0E0000
0E0000
1E0000
3C0000
FC0000
ENDCHAR
STARTCHAR asciicircum
ENCODING 94
SWIDTH 540 0
DWIDTH 17 0
BBX 14 13 3 11
BITMAP
0300
0380
0780
07C0
0FC0
0EE0
1CE0
3870
3870
7038
6018
E01C
C00C
ENDCHAR
STARTCHAR underscore
ENCODING 95
SWIDTH 530 0
DWIDTH 17 0
BBX 21 3 -5 -5
BITMAP
7FFFF8
FFFFF8
FFFFF0
ENDCHAR
STARTCHAR grave
ENCODING 96
SWIDTH 219 0
DWIDTH 7 0
BBX 5 8 1 17
BITMAP
70
F0
F0
F0
70
70
38
10
ENDCHAR
STARTCHAR a
ENCODING 97
SWIDTH 541 0
DWIDTH 17 0
BBX 16 17 1 -1
BITMAP
01E7
07FF
0F1F
1E1E
3C1E
381C
783C
703C
F078
F078
F0F0
F0F0
F1F0
F37A
7E7E
3C3C
0018
ENDCHAR
STARTCHAR b
ENCODING 98
SWIDTH 525 0
DWIDTH 17 0
BBX 15 26 1 0
BITMAP
0300
0380
0780
0780
0700
0700
0F00
0E00
0E00
1E00
1C78
1DFC
1B1C
3E1E
3C1E
3C1E
781E
781C
703C
F03C
E078
E078
E0F0
63E0
7F80
3E00
ENDCHAR
STARTCHAR c
ENCODING 99
SWIDTH 465 0
DWIDTH 15 0
BBX 14 16 1 0
BITMAP
01F0
07F8
0F18
1E1C
3C3C
7838
7878
7070
F000
F000
F000
F000
F020
70E0
7FC0
1F00
ENDCHAR
STARTCHAR d
ENCODING 100
SWIDTH 557 0
DWIDTH 18 0
BBX 20 26 1 0
BITMAP
000060
0000F0
0000E0
0001E0
0001C0
0001C0
0003C0
000380
000380
000780
00F700
03FF00
071F00
0E0E00
1C1E00
3C1E00
381C00
783C00
703C00
F03800
F07800
F0F800
F0B800
71BF00
7F3F00
3C1C00
ENDCHAR
STARTCHAR e
ENCODING 101
SWIDTH 471 0
DWIDTH 15 0
BBX 14 16 1 0
BITMAP
01F0
07F8
0F38
1E3C
3C3C
3838
7878
78F0
73E0
FF80
F000
F000
F030
7070
3FE0
1F80
ENDCHAR
STARTCHAR f
ENCODING 102
SWIDTH 393 0
DWIDTH 13 0
BBX 18 31 -1 -4
BITMAP
000700
001F80
0039C0
0079C0
0071C0
00F3C0
00E3C0
00E380
01E000
01C000
01C000
01C000
03F800
07FE00
1FFE00
1F8000
070000
070000
0F0000
0F0000
0E0000
0E0000
1E0000
1C0000
1C0000
3C0000
380000
780000
780000
F00000
E00000
ENDCHAR
STARTCHAR g
ENCODING 103
SWIDTH 526 0
DWIDTH 17 0
BBX 16 25 1 -9
BITMAP
01F0
07F7
0F1F
1E0E
3C1E
381E
781C
783C
F03C
F07C
F078
F0F8
F1F8
73F0
7F70
3CF0
00E0
00E0
01C0
01C0
0380
0700
0E00
7C00
7800
ENDCHAR
STARTCHAR h
ENCODING 104
SWIDTH 555 0
DWIDTH 18 0
BBX 17 26 0 0
BITMAP
00C000
01E000
01E000
01E000
01C000
01C000
03C000
03C000
038000
038000
078E00
071F00
073F80
0E6700
0EC700
0F8F00
1F0E00
1F1E00
1E1C00
3C3C00
383C00
783800
703800
F03F00
E03F00
601C00
ENDCHAR
STARTCHAR i
ENCODING 105
SWIDTH 286 0
DWIDTH 9 0
BBX 9 24 1 0
BITMAP
0780
0780
0780
0780
0200
0000
0000
0000
1E00
3E00
1E00
1E00
1C00
1C00
3800
3800
7000
7000
7000
E000
E000
FC00
F800
7000
ENDCHAR
STARTCHAR j
ENCODING 106
SWIDTH 281 0
DWIDTH 9 0
BBX 15 33 -6 -9
BITMAP
000E
001E
001E
001E
0008
0000
0000
0000
0038
007C
003C
003C
0038
0038
0038
0078
0078
0070
0070
00F0
00E0
00E0
01E0
01C0
03C0
0380
0780
0700
0E00
1E00
3C00
7800
E000
ENDCHAR
STARTCHAR k
ENCODING 107
SWIDTH 497 0
DWIDTH 16 0
BBX 16 26 0 0
BITMAP
00C0
01E0
01E0
01C0
01C0
01C0
03C0
0380
0380
0380
078E
070F
070F
0E0F
0E1E
0E3C
1CF8
1FE0
1F80
3F80
3BC0
79C0
71E0
F0FE
E0FE
6038
ENDCHAR
STARTCHAR l
ENCODING 108
SWIDTH 279 0
DWIDTH 9 0
BBX 9 26 1 0
BITMAP
0380
0380
0380
0380
0780
0780
0700
0700
0F00
0E00
0E00
1E00
1C00
1C00
3C00
3800
3800
7800
7000
7000
F000
E000
E400
FC00
FC00
7800
ENDCHAR
STARTCHAR m
ENCODING 109
SWIDTH 814 0
DWIDTH 26 0
BBX 25 16 0 0
BITMAP
0E0E0F00
1F1F1F80
0F3F3F80
0F737780
0EE76780
0FC6C700
1D8F8F00
1F0F0E00
1E0F1E00
3C1E1C00
381C3C00
783C3800
70383800
F0783F00
E0703F00
60301E00
ENDCHAR
STARTCHAR n
ENCODING 110
SWIDTH 561 0
DWIDTH 18 0
BBX 17 16 0 0
BITMAP
0E0F00
1F1F00
0F3F80
0F6780
0EC700
0F8700
1D8F00
1F0E00
1E1E00
3C1C00
383C00
783800
703800
F03F00
E03F00
601E00
ENDCHAR
STARTCHAR o
ENCODING 111
SWIDTH 514 0
DWIDTH 16 0
BBX 14 16 1 0
BITMAP
01F0
07F8
0F1C
1E1C
3C1C
3C1C
781C
783C
F03C
F078
F078
F0F0
F0F0
71E0
7F80
1F00
ENDCHAR
STARTCHAR p
ENCODING 112
SWIDTH 550 0
DWIDTH 18 0
BBX 18 25 -2 -9
BITMAP
078F00
079FC0
03B1C0
03E1C0
07C1C0
07C1C0
0781C0
0703C0
0F03C0
0F0380
0E0780
0E0F00
1E1E00
1F3C00
1FF800
1DE000
380000
380000
380000
780000
700000
700000
E00000
E00000
C00000
ENDCHAR
STARTCHAR q
ENCODING 113
SWIDTH 533 0
DWIDTH 17 0
BBX 16 25 1 -9
BITMAP
01F0
03FF
0F1F
1E0F
1C1F
3C1E
781E
783C
703C
F078
F078
F0F8
F1F0
73F0
7F70
3CE0
00E0
00E0
01C0
01C0
01C0
01C0
01C0
01C0
00C0
ENDCHAR
STARTCHAR r
ENCODING 114
SWIDTH 407 0
DWIDTH 13 0
BBX 14 16 0 0
BITMAP
0E1C
1E3C
0F7C
0EFC
0ECC
0F80
1D00
1E00
1E00
3C00
3C00
3800
7800
7000
F000
6000
ENDCHAR
STARTCHAR s
ENCODING 115
SWIDTH 423 0
DWIDTH 14 0
BBX 14 16 0 0
BITMAP
03F0
07F8
0E38
1C3C
1C38
1E10
1F00
0F00
0F80
07C0
03C0
61C0
E1C0
F3C0
7F80
3E00
ENDCHAR
STARTCHAR t
ENCODING 116
SWIDTH 358 0
DWIDTH 11 0
BBX 11 21 2 0
BITMAP
0100
0380
0780
0700
0F00
7FE0
7F80
1C00
3C00
3800
3800
7800
7000
7000
7000
7000
F000
F180
7F00
7E00
3C00
ENDCHAR
STARTCHAR u
ENCODING 117
SWIDTH 553 0
DWIDTH 18 0
BBX 17 16 1 0
BITMAP
1E0300
3E0780
1E0F00
1E0E00
1E1E00
1C1C00
3C3C00
387C00
787800
70F800
F1B000
E37000
E77000
FE7E00
FC7E00
703C00
ENDCHAR
STARTCHAR v
ENCODING 118
SWIDTH 510 0
DWIDTH 16 0
BBX 15 16 1 0
BITMAP
1E1C
1E3E
0E1E
1E1E
1E1E
1C1E
3C1C
381C
781C
7038
7070
F060
E0E0
F380
FF00
7C00
ENDCHAR
STARTCHAR w
ENCODING 119
SWIDTH 750 0
DWIDTH 24 0
BBX 23 16 1 0
BITMAP
1C001C
3E063C
1E0E1E
1E1E1E
1C1C1E
1C3C1C
1C781C
38781C
38F818
79F038
71F030
737060
E670E0
FC7BC0
F83F00
601E00
ENDCHAR
STARTCHAR x
ENCODING 120
SWIDTH 467 0
DWIDTH 15 0
BBX 17 16 -1 0
BITMAP
030380
070F80
071E00
0F3C00
077800
077000
07E000
07C000
038000
07C000
07C000
0DC000
1DE000
38FC00
F0FC00
607800
ENDCHAR
STARTCHAR y
ENCODING 121
SWIDTH 549 0
DWIDTH 18 0
BBX 17 25 1 -9
BITMAP
1E0300
1E0780
0E0F00
1E0F00
1E1E00
1C1E00
3C3E00
383C00
787C00
78FC00
71F800
F3B800
E77800
FE7000
FC7000
70E000
00E000
01C000
01C000
038000
070000
0F0000
1E0000
780000
200000
ENDCHAR
STARTCHAR z
ENCODING 122
SWIDTH 430 0
DWIDTH 14 0
BBX 15 16 0 0
BITMAP
0C0C
0FFE
0FFE
003C
0078
00F0
01E0
07C0
0F80
1E00
3C00
3800
7080
FFE0
FFF0
7030
ENDCHAR
STARTCHAR braceleft
ENCODING 123
SWIDTH 424 0
DWIDTH 14 0
BBX 16 34 2 -5
BITMAP
001F
003E
0078
0070
00F0
00E0
00E0
00E0
01E0
01C0
01C0
03C0
0380
0780
0F00
3E00
7C00
3800
1C00
1C00
1C00
3C00
3C00
3800
7800
7000
7000
F000
E000
E000
E000
E000
F800
7800
ENDCHAR
STARTCHAR bar
ENCODING 124
SWIDTH 306 0
DWIDTH 10 0
BBX 3 34 4 -5
BITMAP
60
E0
E0
E0
E0
E0
E0
E0
E0
E0
E0
E0
E0
E0
E0
E0
E0
E0
E0
E0
E0
E0
E0
E0
E0
E0
E0
E0
E0
E0
E0
E0
E0
C0
ENDCHAR
STARTCHAR braceright
ENCODING 125
SWIDTH 424 0
DWIDTH 14 0
BBX 16 34 -2 -5
BITMAP
001E
003F
000F
0007
000F
000F
000E
000E
001E
001C
003C
0038
0038
0038
0038
0038
001C
007C
00FC
01E0
01C0
03C0
0380
0780
0780
0700
0700
0F00
0E00
0E00
1E00
1C00
FC00
F800
ENDCHAR
STARTCHAR asciitilde
ENCODING 126
SWIDTH 624 0
DWIDTH 20 0
BBX 17 7 2 8
BITMAP
0F0080
1F8180
3FC180
73E380
E1FF00
C0FE00
807800
ENDCHAR
STARTCHAR nonbreakingspace
ENCODING 160
SWIDTH 293 0
DWIDTH 9 0
BBX 1 1 0 0
BITMAP
00
ENDCHAR
STARTCHAR exclamdown
ENCODING 161
SWIDTH 417 0
DWIDTH 13 0
BBX 11 26 1 -7
BITMAP
01C0
03E0
03E0
03E0
01C0
0000
0000
0300
0600
0E00
0E00
1C00
1C00
3C00
3800
7800
7800
7800
F000
F000
F000
F000
F000
E000
6000
2000
ENDCHAR
STARTCHAR cent
ENCODING 162
SWIDTH 487 0
DWIDTH 16 0
BBX 13 24 2 0
BITMAP
0018
0038
0030
0070
0060
03F0
0FF8
1F38
3E38
3C38
7878
7870
7070
F000
F000
F000
7020
7860
3FE0
1F80
1800
1800
1800
1000
ENDCHAR
STARTCHAR sterling
ENCODING 163
SWIDTH 665 0
DWIDTH 21 0
BBX 23 24 -1 0
BITMAP
0000F8
0001FC
00038C
00070E
000F0E
000E0E
001E1C
001C3C
003C78
003CF8
007870
007800
03FF00
07FF80
00F000
00E000
01E000
01E000
3FC000
7FC000
E3F830
C77FF0
FF1FF0
7C07C0
ENDCHAR
STARTCHAR currency
ENCODING 164
SWIDTH 572 0
DWIDTH 18 0
BBX 17 21 2 1
BITMAP
020000
060100
060380
070700
07FE00
07FC00
0F1C00
1E1C00
1E1C00
3C1C00
381C00
383C00
783C00
787800
387000
38E000
3FE000
6FF000
C03000
C03000
001000
ENDCHAR
STARTCHAR yen
ENCODING 165
SWIDTH 583 0
DWIDTH 19 0
BBX 21 24 2 0
BITMAP
780070
FC00F8
FC01F0
1E03E0
1E07C0
0E0F80
0F0F00
071E00
073C00
033800
037800
037000
03E000
03E000
3FFC00
3FF000
038000
038000
7FF800
7FF000
070000
070000
0E0000
0E0000
ENDCHAR
STARTCHAR brokenbar
ENCODING 166
SWIDTH 292 0
DWIDTH 9 0
BBX 2 34 4 -5
BITMAP
C0
C0
C0
C0
C0
C0
C0
C0
C0
C0
C0
C0
C0
C0
C0
00
00
00
00
C0
C0
C0
C0
C0
C0
C0
C0
C0
C0
C0
C0
C0
C0
C0
ENDCHAR
STARTCHAR section
ENCODING 167
SWIDTH 583 0
DWIDTH 19 0
BBX 19 33 0 -7
BITMAP
000F00
003FC0
0078E0
00F0E0
00E0E0
01E0E0
01E1E0
01E3E0
01F3C0
00F380
00F000
01F800
03F800
0F3C00
0E3C00
1E1E00
1C1E00
1E0F00
1E0F00
1E0F00
0F0F00
0F0E00
079C00
07F800
03E000
01C000
21E000
71E000
E0E000
E1C000
F1C000
7F8000
3E0000
ENDCHAR
STARTCHAR dieresis
ENCODING 168
SWIDTH 412 0
DWIDTH 13 0
BBX 12 5 1 19
BITMAP
70F0
F8F0
F9F0
78F0
2040
ENDCHAR
STARTCHAR copyright
ENCODING 169
SWIDTH 871 0
DWIDTH 28 0
BBX 25 24 2 0
BITMAP
001FC000
00FFF000
01F07C00
07801E00
0F0F8E00
1E1FC700
1C78C700
3870C300
30E0C380
71E1C380
71C7C380
61C78380
61C10300
E3C00700
E1C00700
61C10700
61C30E00
70FF1C00
703C3C00
38007800
1C00F000
0F07E000
07FF8000
01FC0000
ENDCHAR
STARTCHAR ordfeminine
ENCODING 170
SWIDTH 564 0
DWIDTH 18 0
BBX 15 14 3 9
BITMAP
01CE
07FE
0E3C
1C3C
3838
3838
7070
70F0
70F0
71E0
F360
7F7C
7E7C
3C78
ENDCHAR
STARTCHAR guillemotleft
ENCODING 171
SWIDTH 662 0
DWIDTH 21 0
BBX 18 13 2 3
BITMAP
00C0C0
01C180
078780
1E1E00
3C3C00
F8F800
F0F000
787800
3C3C00
1C1C00
0E0E00
070700
020200
ENDCHAR
STARTCHAR logicalnot
ENCODING 172
SWIDTH 729 0
DWIDTH 23 0
BBX 19 10 2 2
BITMAP
7FFFC0
FFFFE0
0000C0
0000C0
0000C0
0000C0
0001C0
0001C0
0001C0
0001C0
ENDCHAR
STARTCHAR uni00AD
ENCODING 173
SWIDTH 833 0
DWIDTH 27 0
BBX 1 1 0 0
BITMAP
00
ENDCHAR
STARTCHAR registered
ENCODING 174
SWIDTH 742 0
DWIDTH 24 0
BBX 20 20 3 4
BITMAP
00FE00
03FF80
0F01C0
1C00E0
19FC60
33DE70
714E30
61CE30
E18C30
C1FC30
C3F070
C3F060
C33060
C738E0
E61DC0
600180
700780
3C1E00
1FFC00
07F000
ENDCHAR
STARTCHAR macron
ENCODING 175
SWIDTH 392 0
DWIDTH 13 0
BBX 11 3 2 18
BITMAP
7FE0
FFE0
FFC0
ENDCHAR
STARTCHAR degree
ENCODING 176
SWIDTH 405 0
DWIDTH 13 0
BBX 10 10 4 14
BITMAP
1F00
3F80
71C0
E1C0
E1C0
E3C0
C380
E780
FE00
3800
ENDCHAR
STARTCHAR plusminus
ENCODING 177
SWIDTH 617 0
DWIDTH 20 0
BBX 16 21 2 0
BITMAP
0180
0180
0180
0180
0180
0180
0180
7FFF
FFFF
0180
0180
0180
0180
0180
0180
0180
0000
0000
0000
7FFF
FFFF
ENDCHAR
STARTCHAR twosuperior
ENCODING 178
SWIDTH 458 0
DWIDTH 15 0
BBX 13 17 2 7
BITMAP
03E0
07F0
0E38
1C38
1C38
1E38
0E78
00F0
01E0
03C0
0780
0E00
1C00
3820
7FE0
FFE0
63C0
ENDCHAR
STARTCHAR threesuperior
ENCODING 179
SWIDTH 430 0
DWIDTH 14 0
BBX 13 17 2 7
BITMAP
03E0
07F0
0E38
0C38
0C38
0E78
0470
01F0
07C0
0780
01C0
21E0
71E0
E1C0
63C0
7F80
3E00
ENDCHAR
STARTCHAR acute
ENCODING 180
SWIDTH 322 0
DWIDTH 10 0
BBX 7 8 3 17
BITMAP
0C
0E
1E
1E
3C
38
70
C0
ENDCHAR
STARTCHAR mu
ENCODING 181
SWIDTH 618 0
DWIDTH 20 0
BBX 20 25 -1 -9
BITMAP
00C070
01E0F0
03C0E0
03C1E0
0781C0
0783C0
0F0780
0F0780
0E0F80
1E0F00
1E1F00
3C3700
3C6700
3FC7E0
7F87C0
770380
700000
700000
600000
E00000
E00000
E00000
E00000
E00000
E00000
ENDCHAR
STARTCHAR paragraph
ENCODING 182
SWIDTH 739 0
DWIDTH 24 0
BBX 26 28 1 -2
BITMAP
0001FFC0
001FFFC0
007FFF80
00FF8F00
01FF8E00
03FF0E00
03FF1E00
07FE1E00
07FE1C00
07FE1C00
07FE3C00
03FC3800
03FC3800
01FC3800
007C7000
00387000
00787000
0078E000
0070E000
00F0E000
00F1C000
38E1C000
79E18000
F1C38000
E3C38000
E3870000
FF060000
3C0C0000
ENDCHAR
STARTCHAR periodcentered
ENCODING 183
SWIDTH 353 0
DWIDTH 11 0
BBX 5 5 4 8
BITMAP
70
F8
F8
F0
60
ENDCHAR
STARTCHAR cedilla
ENCODING 184
SWIDTH 301 0
DWIDTH 10 0
BBX 6 8 2 -7
BITMAP
30
18
18
1C
1C
78
F8
70
ENDCHAR
STARTCHAR onesuperior
ENCODING 185
SWIDTH 403 0
DWIDTH 13 0
BBX 9 17 4 7
BITMAP
0300
0F80
1F80
3F80
FF00
E700
0F00
0E00
0E00
1C00
1C00
3800
3800
7000
6000
E000
8000
ENDCHAR
STARTCHAR ordmasculine
ENCODING 186
SWIDTH 498 0
DWIDTH 16 0
BBX 13 14 3 9
BITMAP
03E0
0FF0
1E38
3C38
3838
7838
7078
7078
F070
F0F0
F1E0
73C0
7F80
1E00
ENDCHAR
STARTCHAR guillemotright
ENCODING 187
SWIDTH 665 0
DWIDTH 21 0
BBX 17 13 2 3
BITMAP
303000
387800
1C1C00
1E1E00
0F0F00
078780
038380
0F8F80
1E1E00
383800
F0F000
C0C000
808000
ENDCHAR
STARTCHAR onequarter
ENCODING 188
SWIDTH 988 0
DWIDTH 32 0
BBX 26 26 3 0
BITMAP
00001000
00007000
03807000
0780E000
0F81C000
3F81C000
FF838000
47038000
07070000
0F0E3800
0E0E3800
1E1C3800
1C1C7800
1C387180
3878F1C0
7070E3C0
70E1E380
E0E1C380
01C3C780
01C1FFC0
0380FFC0
07000E00
07000E00
0E001C00
0E003800
1C003000
ENDCHAR
STARTCHAR onehalf
ENCODING 189
SWIDTH 988 0
DWIDTH 32 0
BBX 27 26 3 0
BITMAP
00003000
00007000
0380E000
0780E000
0F81C000
1F83C000
7F838000
F7070000
07070000
0E0E0000
0E0E1F80
1E1C3FC0
1C1C71C0
1C3870E0
387071E0
707071C0
70E003C0
E0E00780
01C00F00
01801E00
03803C00
0700F000
0701E100
0E03FF00
0E03FF00
1C03FE00
ENDCHAR
STARTCHAR threequarters
ENCODING 190
SWIDTH 1007 0
DWIDTH 32 0
BBX 29 26 1 0
BITMAP
00000200
00000700
03E00E00
07F01E00
0E381C00
1C383800
1C383800
0E787000
00F07000
03E0E200
07C1C300
0FC1C700
01C38700
71C38730
E1C70E38
E3CE0E38
E38E1C70
7F1C3C70
181C3870
00383FF0
00381FF8
007001C0
00E00180
00E00380
01C00300
01800600
ENDCHAR
STARTCHAR questiondown
ENCODING 191
SWIDTH 516 0
DWIDTH 17 0
BBX 15 24 0 -6
BITMAP
001C
003E
003E
003E
001C
0000
0010
0030
0070
0070
01E0
03E0
07C0
0F80
3E00
7C00
78C0
F1E0
E0E0
E0E0
E1E0
61C0
7F80
1F00
ENDCHAR
STARTCHAR Agrave
ENCODING 192
SWIDTH 615 0
DWIDTH 20 0
BBX 24 31 -3 0
BITMAP
000030
000070
000078
00003C
00001E
000002
000000
00000F
00003F
0000FE
0001CE
00039E
00071C
000E3C
001C3C
001C38
003878
007070
0077FE
01FFFE
03FFFC
05C0E0
0381E0
0381E0
0701C0
0701C0
0E01C0
1E01C0
3C01F8
F801F8
7000F0
ENDCHAR
STARTCHAR Aacute
ENCODING 193
SWIDTH 615 0
DWIDTH 20 0
BBX 26 31 -3 0
BITMAP
00000180
000003C0
00000380
00000780
00000E00
00001800
00000000
00000F00
00003F00
0000FE00
0001CE00
00039E00
00071C00
000E3C00
001C3C00
001C3800
00387800
00707000
0077FE00
01FFFE00
03FFFC00
05C0E000
0381E000
0381E000
0701C000
0701C000
0E01C000
1E01C000
3C01F800
F801F800
7000F000
ENDCHAR
STARTCHAR Acircumflex
ENCODING 194
SWIDTH 615 0
DWIDTH 20 0
BBX 26 31 -3 0
BITMAP
00000600
00000F00
00001F00
00007B80
0001E3C0
00008080
00000000
00000F00
00003F00
0000FE00
0001CE00
00039E00
00071C00
000E3C00
001C3C00
001C3800
00387800
00707000
0077FE00
01FFFE00
03FFFC00
05C0E000
0381E000
0381E000
0701C000
0701C000
0E01C000
1E01C000
3C01F800
F801F800
7000F000
ENDCHAR
STARTCHAR Atilde
ENCODING 195
SWIDTH 615 0
DWIDTH 20 0
BBX 27 31 -3 0
BITMAP
00003820
00007C60
0000FFE0
00018FC0
00010700
00000000
00000000
00000F00
00003F00
0000FE00
0001CE00
00039E00
00071C00
000E3C00
001C3C00
001C3800
00387800
00707000
0077FE00
01FFFE00
03FFFC00
05C0E000
0381E000
0381E000
0701C000
0701C000
0E01C000
1E01C000
3C01F800
F801F800
7000F000
ENDCHAR
STARTCHAR Adieresis
ENCODING 196
SWIDTH 615 0
DWIDTH 20 0
BBX 27 31 -3 0
BITMAP
00004080
0001F1E0
0001F3E0
0001F3E0
0000E1C0
00000000
00000000
00000F00
00003F00
0000FE00
0001CE00
00039E00
00071C00
000E3C00
001C3C00
001C3800
00387800
00707000
0077FE00
01FFFE00
03FFFC00
05C0E000
0381E000
0381E000
0701C000
0701C000
0E01C000
1E01C000
3C01F800
F801F800
7000F000
ENDCHAR
STARTCHAR Aring
ENCODING 197
SWIDTH 615 0
DWIDTH 20 0
BBX 26 31 -3 0
BITMAP
00000F00
00003F80
000039C0
000071C0
00007180
00007380
00007300
00003F00
00003F00
0000FE00
0001CE00
00039E00
00071C00
000E3C00
001C3C00
001C3800
00387800
00707000
0077FE00
01FFFE00
03FFFC00
05C0E000
0381E000
0381E000
0701C000
0701C000
0E01C000
1E01C000
3C01F800
F801F800
7000F000
ENDCHAR
STARTCHAR AE
ENCODING 198
SWIDTH 878 0
DWIDTH 28 0
BBX 33 24 -2 0
BITMAP
00003EFC00
0000FFFF00
0001FFC300
0003CF0380
00079E0380
000F1E0700
000E3C1F00
001C383E00
0038383C00
0038781800
0070380000
00E0380000
00EFFFC000
01FFFFC000
07FFFF0000
0F807C0000
0700F80000
0F00F00000
0E01E02000
1E01E03000
1C01E07000
3800E1E000
F000FFC000
E0003F0000
ENDCHAR
STARTCHAR Ccedilla
ENCODING 199
SWIDTH 533 0
DWIDTH 17 0
BBX 18 31 2 -7
BITMAP
003E00
00FF00
01E180
03C180
0781C0
0F0380
1E0780
3C0F80
3C1F00
781E00
781C00
700000
F00000
F00000
F00000
E00000
E00000
E00000
E00000
F01000
F03800
707800
7FF000
1FC000
0C0000
0C0000
0E0000
1E0000
3C0000
7C0000
380000
ENDCHAR
STARTCHAR Egrave
ENCODING 200
SWIDTH 509 0
DWIDTH 16 0
BBX 18 31 1 0
BITMAP
003800
003800
003800
003C00
001E00
000200
000000
003F00
01FF80
03E1C0
0781C0
0F01C0
0F0380
1E0780
1E1F00
1C1E00
1C0C00
1C0000
1E0000
0FE000
07E000
1F8000
3E0000
7C0000
780000
F00800
F01800
F03800
70F000
7FE000
1F8000
ENDCHAR
STARTCHAR Eacute
ENCODING 201
SWIDTH 509 0
DWIDTH 16 0
BBX 18 31 1 0
BITMAP
0001C0
0001C0
0003C0
000780
000F00
000800
000000
003F00
01FF80
03E1C0
0781C0
0F01C0
0F0380
1E0780
1E1F00
1C1E00
1C0C00
1C0000
1E0000
0FE000
07E000
1F8000
3E0000
7C0000
780000
F00800
F01800
F03800
70F000
7FE000
1F8000
ENDCHAR
STARTCHAR Ecircumflex
ENCODING 202
SWIDTH 509 0
DWIDTH 16 0
BBX 18 31 1 0
BITMAP
000300
000700
001F80
003B80
00F1C0
004080
000000
003F00
01FF80
03E1C0
0781C0
0F01C0
0F0380
1E0780
1E1F00
1C1E00
1C0C00
1C0000
1E0000
0FE000
07E000
1F8000
3E0000
7C0000
780000
F00800
F01800
F03800
70F000
7FE000
1F8000
ENDCHAR
STARTCHAR Edieresis
ENCODING 203
SWIDTH 509 0
DWIDTH 16 0
BBX 20 31 1 0
BITMAP
004040
00F1E0
00F1F0
00F1E0
00E0E0
000000
000000
003F00
01FF80
03E1C0
0781C0
0F01C0
0F0380
1E0780
1E1F00
1C1E00
1C0C00
1C0000
1E0000
0FE000
07E000
1F8000
3E0000
7C0000
780000
F00800
F01800
F03800
70F000
7FE000
1F8000
ENDCHAR
STARTCHAR Igrave
ENCODING 204
SWIDTH 327 0
DWIDTH 10 0
BBX 12 31 0 0
BITMAP
0180
0380
03C0
01E0
00F0
0010
0000
0FC0
1FE0
0CE0
00E0
01E0
01E0
01E0
01C0
03C0
03C0
0380
0380
0780
0780
0F00
0F00
0E00
1E00
1C00
3C00
3800
7000
F000
C000
ENDCHAR
STARTCHAR Iacute
ENCODING 205
SWIDTH 327 0
DWIDTH 10 0
BBX 15 31 0 0
BITMAP
000C
001E
001C
003C
0070
0040
0000
0FC0
1FE0
0CE0
00E0
01E0
01E0
01E0
01C0
03C0
03C0
0380
0380
0780
0780
0F00
0F00
0E00
1E00
1C00
3C00
3800
7000
F000
C000
ENDCHAR
STARTCHAR Icircumflex
ENCODING 206
SWIDTH 327 0
DWIDTH 10 0
BBX 15 31 0 0
BITMAP
0038
0078
00FC
03DC
079E
0204
0000
0FC0
1FE0
0CE0
00E0
01E0
01E0
01E0
01C0
03C0
03C0
0380
0380
0780
0780
0F00
0F00
0E00
1E00
1C00
3C00
3800
7000
F000
C000
ENDCHAR
STARTCHAR Idieresis
ENCODING 207
SWIDTH 327 0
DWIDTH 10 0
BBX 16 31 0 0
BITMAP
0204
078F
0F9F
0F8F
070E
0000
0000
0FC0
1FE0
0CE0
00E0
01E0
01E0
01E0
01C0
03C0
03C0
0380
0380
0780
0780
0F00
0F00
0E00
1E00
1C00
3C00
3800
7000
F000
C000
ENDCHAR
STARTCHAR Eth
ENCODING 208
SWIDTH 630 0
DWIDTH 20 0
BBX 20 24 1 0
BITMAP
07FC00
1FFF00
3F0780
1C03C0
0001E0
03C0E0
0780E0
0780F0
0F00E0
7FF0E0
FFF0E0
FFE1E0
3C01E0
3C01C0
3803C0
780780
780700
700F00
701E00
F03C00
F0F800
F1E000
7FC000
3E0000
ENDCHAR
STARTCHAR Ntilde
ENCODING 209
SWIDTH 708 0
DWIDTH 23 0
BBX 25 31 1 0
BITMAP
0000C100
0003E180
0007F300
00067F00
000C3E00
00041800
00000000
00781C00
00F81E00
01F01F00
01F00F00
03F00F00
07700F00
06700E00
0E700E00
0C701C00
1C701C00
1C701C00
38783800
38783000
30787000
70786000
7038E000
703CC000
E03DC000
E03D8000
E01F8000
E01F0000
C00F0000
C00F0000
C0070000
ENDCHAR
STARTCHAR Ograve
ENCODING 210
SWIDTH 655 0
DWIDTH 21 0
BBX 19 31 2 0
BITMAP
000C00
001E00
001E00
000F00
000780
000080
000000
001F00
00FFC0
01E1C0
03C0E0
0780E0
0F00E0
1E00E0
1E00E0
3C00E0
3C00E0
7801E0
7801E0
7001C0
F003C0
F003C0
F00780
E00780
E00F00
E01E00
E03C00
F07800
70F000
3FE000
1F8000
ENDCHAR
STARTCHAR Oacute
ENCODING 211
SWIDTH 655 0
DWIDTH 21 0
BBX 20 31 2 0
BITMAP
000070
000070
0000F0
0001E0
0003C0
000200
000000
001F00
00FFC0
01E1C0
03C0E0
0780E0
0F00E0
1E00E0
1E00E0
3C00E0
3C00E0
7801E0
7801E0
7001C0
F003C0
F003C0
F00780
E00780
E00F00
E01E00
E03C00
F07800
70F000
3FE000
1F8000
ENDCHAR
STARTCHAR Ocircumflex
ENCODING 212
SWIDTH 655 0
DWIDTH 21 0
BBX 20 31 2 0
BITMAP
0000C0
0001C0
0007E0
001EE0
003C70
001020
000000
001F00
00FFC0
01E1C0
03C0E0
0780E0
0F00E0
1E00E0
1E00E0
3C00E0
3C00E0
7801E0
7801E0
7001C0
F003C0
F003C0
F00780
E00780
E00F00
E01E00
E03C00
F07800
70F000
3FE000
1F8000
ENDCHAR
STARTCHAR Otilde
ENCODING 213
SWIDTH 655 0
DWIDTH 21 0
BBX 22 31 2 0
BITMAP
000F08
001F8C
003FF8
0033F0
0061E0
000000
000000
001F00
00FFC0
01E1C0
03C0E0
0780E0
0F00E0
1E00E0
1E00E0
3C00E0
3C00E0
7801E0
7801E0
7001C0
F003C0
F003C0
F00780
E00780
E00F00
E01E00
E03C00
F07800
70F000
3FE000
1F8000
ENDCHAR
STARTCHAR Odieresis
ENCODING 214
SWIDTH 655 0
DWIDTH 21 0
BBX 21 31 2 0
BITMAP
001020
003C78
007C78
003C78
003870
000000
000000
001F00
00FFC0
01E1C0
03C0E0
0780E0
0F00E0
1E00E0
1E00E0
3C00E0
3C00E0
7801E0
7801E0
7001C0
F003C0
F003C0
F00780
E00780
E00F00
E01E00
E03C00
F07800
70F000
3FE000
1F8000
ENDCHAR
STARTCHAR multiply
ENCODING 215
SWIDTH 573 0
DWIDTH 18 0
BBX 14 13 3 5
BITMAP
E01C
7038
3870
3CE0
1DC0
0F80
0700
0F80
1DC0
38E0
7870
F038
E018
ENDCHAR
STARTCHAR Oslash
ENCODING 216
SWIDTH 655 0
DWIDTH 21 0
BBX 20 30 3 -3
BITMAP
000070
0000F0
0001E0
001FC0
00FFC0
01E3E0
03C7E0
0786E0
0F0CE0
1E1CE0
1E18E0
3C30E0
3C30E0
7861E0
78E1E0
70C1C0
F183C0
F183C0
F30780
E30700
E60F00
EC1E00
EC3C00
F87800
78F000
3FE000
7F8000
E00000
C00000
400000
ENDCHAR
STARTCHAR Ugrave
ENCODING 217
SWIDTH 624 0
DWIDTH 20 0
BBX 21 31 1 0
BITMAP
001C00
001C00
001C00
001E00
000F00
000100
000000
078038
07C038
03C078
03C070
0380F0
0780E0
0701E0
0F03E0
0F03C0
1E07C0
1E07C0
1C0F80
3C0F80
381F80
781F00
703700
707F00
F06E00
E0CE00
E18E00
E38E00
FF0FC0
FE0FC0
780780
ENDCHAR
STARTCHAR Uacute
ENCODING 218
SWIDTH 624 0
DWIDTH 20 0
BBX 21 31 1 0
BITMAP
0000E0
0000E0
0001E0
0003C0
000780
000400
000000
078038
07C038
03C078
03C070
0380F0
0780E0
0701E0
0F03E0
0F03C0
1E07C0
1E07C0
1C0F80
3C0F80
381F80
781F00
703700
707F00
F06E00
E0CE00
E18E00
E38E00
FF0FC0
FE0FC0
780780
ENDCHAR
STARTCHAR Ucircumflex
ENCODING 219
SWIDTH 624 0
DWIDTH 20 0
BBX 21 31 1 0
BITMAP
000180
0003C0
000FC0
001DE0
0078E0
002040
000000
078038
07C038
03C078
03C070
0380F0
0780E0
0701E0
0F03E0
0F03C0
1E07C0
1E07C0
1C0F80
3C0F80
381F80
781F00
703700
707F00
F06E00
E0CE00
E18E00
E38E00
FF0FC0
FE0FC0
780780
ENDCHAR
STARTCHAR Udieresis
ENCODING 220
SWIDTH 624 0
DWIDTH 20 0
BBX 21 31 1 0
BITMAP
002020
0078F0
0078F8
0078F0
007070
000000
000000
078038
07C038
03C078
03C070
0380F0
0780E0
0701E0
0F03E0
0F03C0
1E07C0
1E07C0
1C0F80
3C0F80
381F80
781F00
703700
707F00
F06E00
E0CE00
E18E00
E38E00
FF0FC0
FE0FC0
780780
ENDCHAR
STARTCHAR Yacute
ENCODING 221
SWIDTH 580 0
DWIDTH 19 0
BBX 21 40 1 -9
BITMAP
0000C0
0000E0
0001E0
0001C0
000380
000700
000000
078038
07C038
03C078
038070
0380F0
0781E0
0701E0
0F03E0
0E03C0
1E07C0
1E07C0
1C0F80
3C0F80
381F00
781F00
703F00
F07E00
F06E00
E0DE00
E19C00
E33C00
FE3800
FC7800
787000
00F000
00E000
01C000
03C000
078000
0F0000
1E0000
7C0000
700000
ENDCHAR
STARTCHAR Thorn
ENCODING 222
SWIDTH 527 0
DWIDTH 17 0
BBX 19 24 -2 0
BITMAP
07E000
0FF000
06F000
00F000
00F000
00F000
00FE00
00FF80
01E1C0
01C0E0
01C0E0
03C0E0
03C1E0
0381E0
0783C0
070F80
07FF00
0FF800
0E0000
1E0000
3C0000
380000
F00000
600000
ENDCHAR
STARTCHAR germandbls
ENCODING 223
SWIDTH 520 0
DWIDTH 17 0
BBX 19 30 -2 -4
BITMAP
000F80
003FC0
0038E0
0070E0
00E0E0
00E0E0
01E0E0
01C1E0
01C3C0
03C380
038700
038E00
079C00
071C00
071C00
071C00
0F1E00
0F1E00
0E0F00
0E0780
1E0780
1C4380
1CE180
3CE380
3CFF00
387C00
780000
700000
700000
E00000
ENDCHAR
STARTCHAR agrave
ENCODING 224
SWIDTH 541 0
DWIDTH 17 0
BBX 16 26 1 -1
BITMAP
0070
00F0
00F0
00F0
0070
0070
0030
0010
0000
01E7
07FF
0F1F
1E1E
3C1E
381C
783C
703C
F078
F078
F0F0
F0F0
F1F0
F37A
7E7E
3C3C
0018
ENDCHAR
STARTCHAR aacute
ENCODING 225
SWIDTH 541 0
DWIDTH 17 0
BBX 16 26 1 -1
BITMAP
000C
001E
001E
003C
0038
0070
00E0
0080
0000
01E7
07FF
0F1F
1E1E
3C1E
381C
783C
703C
F078
F078
F0F0
F0F0
F1F0
F37A
7E7E
3C3C
0018
ENDCHAR
STARTCHAR acircumflex
ENCODING 226
SWIDTH 541 0
DWIDTH 17 0
BBX 16 26 1 -1
BITMAP
0004
001E
003E
007E
01EE
07C7
0707
0000
0000
01E7
07FF
0F1F
1E1E
3C1E
381C
783C
703C
F078
F078
F0F0
F0F0
F1F0
F37A
7E7E
3C3C
0018
ENDCHAR
STARTCHAR atilde
ENCODING 227
SWIDTH 541 0
DWIDTH 17 0
BBX 17 25 1 -1
BITMAP
00F080
01F980
03FF80
063F00
061E00
000000
000000
000000
01E700
07FF00
0F1F00
1E1E00
3C1E00
381C00
783C00
703C00
F07800
F07800
F0F000
F0F000
F1F000
F37A00
7E7E00
3C3C00
001800
ENDCHAR
STARTCHAR adieresis
ENCODING 228
SWIDTH 541 0
DWIDTH 17 0
BBX 17 25 1 -1
BITMAP
03C780
07C780
07C780
03C780
010200
000000
000000
000000
01E700
07FF00
0F1F00
1E1E00
3C1E00
381C00
783C00
703C00
F07800
F07800
F0F000
F0F000
F1F000
F37A00
7E7E00
3C3C00
001800
ENDCHAR
STARTCHAR aring
ENCODING 229
SWIDTH 541 0
DWIDTH 17 0
BBX 16 26 1 -1
BITMAP
003C
00FE
01C7
01C7
01CE
01FE
00F8
0000
0000
01E7
07FF
0F1F
1E1E
3C1E
381C
783C
703C
F078
F078
F0F0
F0F0
F1F0
F37A
7E7E
3C3C
0018
ENDCHAR
STARTCHAR ae
ENCODING 230
SWIDTH 769 0
DWIDTH 25 0
BBX 23 16 1 0
BITMAP
01E778
07FFFE
0F1F9E
1E1F1E
3C1E1E
381C1E
783C3C
703CF8
F07FF0
F07F80
F0F800
F0F800
F1BC18
F33C38
7E1FF0
3C0FC0
ENDCHAR
STARTCHAR ccedilla
ENCODING 231
SWIDTH 465 0
DWIDTH 15 0
BBX 14 23 1 -7
BITMAP
01F0
07F8
0F18
1E1C
3C3C
7838
7878
7070
F000
F000
F000
F000
F020
70E0
7FC0
3F00
0C00
0C00
0E00
0E00
3C00
7C00
3800
ENDCHAR
STARTCHAR egrave
ENCODING 232
SWIDTH 471 0
DWIDTH 15 0
BBX 14 25 1 0
BITMAP
00C0
01C0
01C0
01C0
01C0
00E0
0060
0020
0000
01F0
07F8
0F38
1E3C
3C3C
3838
7878
78F0
73E0
FF80
F000
F000
F030
7070
3FE0
1F80
ENDCHAR
STARTCHAR eacute
ENCODING 233
SWIDTH 471 0
DWIDTH 15 0
BBX 14 25 1 0
BITMAP
0038
0038
0038
0078
0070
00E0
01C0
0300
0000
01F0
07F8
0F38
1E3C
3C3C
3838
7878
78F0
73E0
FF80
F000
F000
F030
7070
3FE0
1F80
ENDCHAR
STARTCHAR ecircumflex
ENCODING 234
SWIDTH 471 0
DWIDTH 15 0
BBX 15 25 1 0
BITMAP
0010
0038
007C
00FC
03DC
0F1E
0E0E
0000
0000
01F0
07F8
0F38
1E3C
3C3C
3838
7878
78F0
73E0
FF80
F000
F000
F030
7070
3FE0
1F80
ENDCHAR
STARTCHAR edieresis
ENCODING 235
SWIDTH 471 0
DWIDTH 15 0
BBX 16 24 1 0
BITMAP
070E
0F9F
0F9F
0F0F
0204
0000
0000
0000
01F0
07F8
0F38
1E3C
3C3C
3838
7878
79F0
7FC0
FF00
F000
F000
F030
7870
3FE0
1F80
ENDCHAR
STARTCHAR igrave
ENCODING 236
SWIDTH 286 0
DWIDTH 9 0
BBX 8 25 1 0
BITMAP
0E
0E
1E
0E
0E
06
07
01
00
1E
3E
1E
1E
1C
1C
38
38
70
70
70
E0
E0
FC
F8
70
ENDCHAR
STARTCHAR iacute
ENCODING 237
SWIDTH 286 0
DWIDTH 9 0
BBX 10 25 1 0
BITMAP
01C0
01C0
03C0
03C0
0780
0F00
1C00
1000
0000
1E00
3E00
1E00
1E00
1C00
1C00
3800
3800
7000
7000
7000
E000
E000
FC00
F800
7000
ENDCHAR
STARTCHAR icircumflex
ENCODING 238
SWIDTH 286 0
DWIDTH 9 0
BBX 12 25 1 0
BITMAP
0080
01C0
03C0
0FC0
1CE0
78E0
6070
0000
0000
1E00
3E00
1E00
1E00
1C00
1C00
3800
3800
7000
7000
7000
E000
E000
FC00
F800
7000
ENDCHAR
STARTCHAR idieresis
ENCODING 239
SWIDTH 286 0
DWIDTH 9 0
BBX 13 24 1 0
BITMAP
3870
7CF8
7CF8
78F0
3060
0000
0000
0000
1E00
3E00
1E00
1E00
1C00
1C00
3800
3800
7000
7000
7000
E000
E000
FC00
F800
7000
ENDCHAR
STARTCHAR eth
ENCODING 240
SWIDTH 524 0
DWIDTH 17 0
BBX 19 27 1 0
BITMAP
000800
001800
000C00
000E00
0007C0
000FE0
003F00
007F00
00C700
000700
000700
01F700
07FF00
0F1F00
1E1E00
3C1E00
381E00
781C00
703C00
703C00
F07800
F07000
F0F000
F0E000
71C000
7F8000
3E0000
ENDCHAR
STARTCHAR ntilde
ENCODING 241
SWIDTH 561 0
DWIDTH 18 0
BBX 18 24 0 0
BITMAP
007840
00FCC0
01FFC0
031F80
030F00
000000
000000
000000
0E0F00
1F1F00
0F3F80
0F6780
0EC700
0F8700
1D8F00
1F0E00
1E1E00
3C1C00
383C00
783800
703800
F03F00
E03F00
601E00
ENDCHAR
STARTCHAR ograve
ENCODING 242
SWIDTH 514 0
DWIDTH 16 0
BBX 14 25 1 0
BITMAP
0070
00F0
00F0
00F0
0070
0070
0038
0008
0000
01F0
07F8
0F1C
1E1C
3C1C
3C1C
781C
783C
F03C
F078
F078
F0F0
F0F0
71E0
7F80
1F00
ENDCHAR
STARTCHAR oacute
ENCODING 243
SWIDTH 514 0
DWIDTH 16 0
BBX 15 25 1 0
BITMAP
000C
000E
001E
001C
003C
0078
00E0
0080
0000
01F0
07F8
0F1C
1E1C
3C1C
3C1C
781C
783C
F03C
F078
F078
F0F0
F0F0
71E0
7F80
1F00
ENDCHAR
STARTCHAR ocircumflex
ENCODING 244
SWIDTH 514 0
DWIDTH 16 0
BBX 16 25 1 0
BITMAP
0004
000E
001E
007E
00E7
03C7
0703
0000
0000
01F0
07F8
0F1C
1E1C
3C1C
3C1C
781C
783C
F03C
F078
F078
F0F0
F0F0
71E0
7F80
1F00
ENDCHAR
STARTCHAR otilde
ENCODING 245
SWIDTH 514 0
DWIDTH 16 0
BBX 18 24 1 0
BITMAP
00F0C0
01F8C0
03FF80
033F00
021E00
000000
000000
000000
01F000
07F800
0F1C00
1E1C00
3C1C00
3C1C00
781C00
783C00
F03C00
F07800
F07800
F0F000
F0F000
71E000
7F8000
1F0000
ENDCHAR
STARTCHAR odieresis
ENCODING 246
SWIDTH 514 0
DWIDTH 16 0
BBX 18 24 1 0
BITMAP
03C380
03C7C0
03C7C0
03C780
010300
000000
000000
000000
01F000
07F800
0F1C00
1E1C00
3C1C00
3C1C00
781C00
783C00
F03C00
F07800
F07800
F0F000
F0F000
71E000
7F8000
1F0000
ENDCHAR
STARTCHAR divide
ENCODING 247
SWIDTH 617 0
DWIDTH 20 0
BBX 16 16 2 4
BITMAP
0080
01E0
03E0
01C0
0080
0000
0000
7FFF
FFFF
0000
0000
0100
03C0
03C0
03C0
0180
ENDCHAR
STARTCHAR oslash
ENCODING 248
SWIDTH 514 0
DWIDTH 16 0
BBX 16 22 1 -3
BITMAP
0002
000F
001E
01FC
07F8
0F3C
1E7C
3C5C
38DC
799C
713C
F33C
F238
F678
ECF0
E8F0
79E0
7F80
7F00
7000
6000
4000
ENDCHAR
STARTCHAR ugrave
ENCODING 249
SWIDTH 553 0
DWIDTH 18 0
BBX 17 25 1 0
BITMAP
003800
007800
007800
007000
007800
003800
001800
000800
000000
1E0300
3E0780
1E0F00
1E0E00
1E1E00
1C1E00
3C3C00
387C00
787800
70F800
F1B000
E37000
E77000
FE7E00
FC7E00
703C00
ENDCHAR
STARTCHAR uacute
ENCODING 250
SWIDTH 553 0
DWIDTH 18 0
BBX 17 25 1 0
BITMAP
000600
000F00
000F00
001E00
001C00
003800
007000
004000
000000
1E0300
3E0780
1E0F00
1E0E00
1E1E00
1C1C00
3C3C00
387C00
787800
70F800
F1B000
E37000
E77000
FE7E00
FC7E00
703C00
ENDCHAR
STARTCHAR ucircumflex
ENCODING 251
SWIDTH 553 0
DWIDTH 18 0
BBX 17 25 1 0
BITMAP
000600
000F00
001F00
003F00
00F700
03E380
038380
000000
000000
1E0300
3E0780
1E0F00
1E0E00
1E1E00
1C1C00
3C3C00
387C00
787800
70F800
F1B000
E37000
E77000
FE7E00
FC7E00
703C00
ENDCHAR
STARTCHAR udieresis
ENCODING 252
SWIDTH 553 0
DWIDTH 18 0
BBX 18 24 1 0
BITMAP
01C3C0
03E3C0
03E7C0
01E3C0
008100
000000
000000
000000
1E0300
3E0780
1E0F00
1E0E00
1E1E00
1C1C00
3C3C00
387C00
787800
70F800
F1B000
E37000
E77000
FE7E00
FC7E00
703C00
ENDCHAR
STARTCHAR yacute
ENCODING 253
SWIDTH 549 0
DWIDTH 18 0
BBX 17 34 1 -9
BITMAP
000C00
000E00
001E00
001C00
003C00
007800
00E000
008000
000000
1E0300
1E0780
0E0F00
1E0F00
1E1E00
1C1E00
3C3E00
383C00
787C00
78FC00
71F800
F3B800
E77800
FE7000
FC7000
70E000
00E000
01C000
01C000
038000
070000
0F0000
1E0000
780000
200000
ENDCHAR
STARTCHAR thorn
ENCODING 254
SWIDTH 552 0
DWIDTH 18 0
BBX 19 35 -3 -9
BITMAP
001800
001C00
003C00
003800
003800
003800
007800
007000
007000
007000
00E7C0
00EFE0
00D8E0
01F0E0
01E0E0
01E0E0
03C0E0
0381E0
0381E0
0781C0
0703C0
070780
0F0700
0F9E00
0FFC00
1EF000
1C0000
1C0000
3C0000
380000
380000
700000
700000
F00000
600000
ENDCHAR
STARTCHAR ydieresis
ENCODING 255
SWIDTH 549 0
DWIDTH 18 0
BBX 17 33 1 -9
BITMAP
03C380
03C780
07C780
03C780
010200
000000
000000
000000
1E0300
1E0780
0E0F00
1E0F00
1E1E00
1C1E00
3C3E00
383C00
787C00
78FC00
71F800
F3B800
E77800
FE7000
FC7000
70E000
00E000
01C000
01C000
038000
070000
0F0000
1E0000
780000
200000
ENDCHAR
STARTCHAR Amacron
ENCODING 256
SWIDTH 615 0
DWIDTH 20 0
BBX 27 29 -3 0
BITMAP
0000FFE0
0001FFC0
0001FF80
00000000
00000000
00000F00
00003F00
0000FE00
0001CE00
00039E00
00071C00
000E3C00
001C3C00
001C3800
00387800
00707000
0077FE00
01FFFE00
03FFFC00
05C0E000
0381E000
0381E000
0701C000
0701C000
0E01C000
1E01C000
3C01F800
F801F800
7000F000
ENDCHAR
STARTCHAR amacron
ENCODING 257
SWIDTH 543 0
DWIDTH 17 0
BBX 17 22 1 -1
BITMAP
03FF80
03FF00
07FE00
000000
000000
01E700
07FF00
0F1F00
1E1E00
3C1E00
381C00
783C00
703C00
F03800
F07800
F0F000
F0F000
F1F000
F37A00
7E7E00
3C3C00
001800
ENDCHAR
STARTCHAR Abreve
ENCODING 258
SWIDTH 615 0
DWIDTH 20 0
BBX 27 31 -3 0
BITMAP
00003060
00007060
000071C0
00007FC0
00003F80
00001E00
00000000
00000F00
00003F00
0000FE00
0001CE00
00039E00
00071C00
000E3C00
001C3C00
001C3800
00387800
00707000
0077FE00
01FFFE00
03FFFC00
05C0E000
0381E000
0381E000
0701C000
0701C000
0E01C000
1E01C000
3C01F800
F801F800
7000F000
ENDCHAR
STARTCHAR abreve
ENCODING 259
SWIDTH 543 0
DWIDTH 17 0
BBX 17 25 1 -1
BITMAP
00C180
01C180
01C300
01FF00
00FE00
007800
000000
000000
01E700
07FF00
0F1F00
1E1E00
3C1E00
381C00
783C00
703C00
F03800
F07800
F0F000
F0F000
F1F000
F37A00
7E7E00
3C3C00
001800
ENDCHAR
STARTCHAR Aogonek
ENCODING 260
SWIDTH 615 0
DWIDTH 20 0
BBX 24 32 -3 -8
BITMAP
00000F
00003F
0000FE
0001CE
00039E
00071C
000E3C
001C3C
001C38
003878
007070
0077FE
01FFFE
03FFFC
05C0E0
0381E0
0381E0
0701C0
0701C0
0E01C0
1E01C0
3C01F8
F801F8
7000F0
0000C0
000180
000300
000700
000720
0007C0
0007C0
000700
ENDCHAR
STARTCHAR aogonek
ENCODING 261
SWIDTH 541 0
DWIDTH 17 0
BBX 16 24 1 -8
BITMAP
01E7
07FF
0F1F
1E1E
3C1E
381C
783C
703C
F078
F078
F0F0
F0F0
F1F0
F37A
7E7E
3C3C
0038
0070
00E0
00E0
01E8
01F8
01F0
00E0
ENDCHAR
STARTCHAR Cacute
ENCODING 262
SWIDTH 533 0
DWIDTH 17 0
BBX 20 31 2 0
BITMAP
000060
0000F0
0000E0
0001E0
000380
000600
000000
003E00
00FF00
01E180
038180
070180
0F0380
1E0780
3C0F80
3C1F00
781E00
781C00
700000
F00000
F00000
E00000
E00000
E00000
E00000
E00000
E01000
F03800
707000
7FF000
1F8000
ENDCHAR
STARTCHAR cacute
ENCODING 263
SWIDTH 468 0
DWIDTH 15 0
BBX 16 25 1 0
BITMAP
0007
0007
0007
000F
001E
001C
0030
0040
0000
01F0
07F8
0F1C
1E1C
3C3C
3838
7878
7070
F000
F000
F000
F000
F020
70E0
7FC0
1F00
ENDCHAR
STARTCHAR Ccircumflex
ENCODING 264
SWIDTH 533 0
DWIDTH 17 0
BBX 20 31 2 0
BITMAP
000180
0003C0
0007C0
001EE0
0078F0
002020
000000
003E00
00FF00
01E180
038180
070180
0F0380
1E0780
3C0F80
3C1F00
781E00
781C00
700000
F00000
F00000
E00000
E00000
E00000
E00000
E00000
E01000
F03800
707000
7FF000
1F8000
ENDCHAR
STARTCHAR ccircumflex
ENCODING 265
SWIDTH 468 0
DWIDTH 15 0
BBX 16 25 1 0
BITMAP
0004
001E
003E
007E
01EE
07C7
0707
0000
0000
01F0
07F8
0F1C
1E1C
3C3C
3838
7878
7070
F000
F000
F000
F000
F020
70E0
7FC0
1F00
ENDCHAR
STARTCHAR Cdotaccent
ENCODING 266
SWIDTH 533 0
DWIDTH 17 0
BBX 17 31 2 0
BITMAP
000400
000F00
000F00
000F00
000E00
000000
000000
003E00
00FF00
01E180
038180
070180
0F0380
1E0780
3C0F80
3C1F00
781E00
781C00
700000
F00000
F00000
E00000
E00000
E00000
E00000
E00000
E01000
F03800
707000
7FF000
1F8000
ENDCHAR
STARTCHAR cdotaccent
ENCODING 267
SWIDTH 468 0
DWIDTH 15 0
BBX 14 24 1 0
BITMAP
0038
007C
007C
0078
0030
0000
0000
0000
01F0
07F8
0F1C
1E1C
3C3C
3838
7878
7070
F000
F000
F000
F000
F020
70E0
7FC0
1F00
ENDCHAR
STARTCHAR Ccaron
ENCODING 268
SWIDTH 533 0
DWIDTH 17 0
BBX 21 31 2 0
BITMAP
000010
003C18
001E78
000FF0
000F80
000600
000000
003E00
00FF00
01E180
038180
070180
0F0380
1E0780
3C0F80
3C1F00
781E00
781C00
700000
F00000
F00000
E00000
E00000
E00000
E00000
E00000
E01000
F03800
707000
7FF000
1F8000
ENDCHAR
STARTCHAR ccaron
ENCODING 269
SWIDTH 468 0
DWIDTH 15 0
BBX 18 24 1 0
BITMAP
01C040
00E1C0
00E3C0
006700
007E00
007000
000000
000000
01F000
07F800
0F1C00
1E1C00
3C3C00
383800
787800
707000
F00000
F00000
F00000
F00000
F02000
70E000
7FC000
1F0000
ENDCHAR
STARTCHAR Dcaron
ENCODING 270
SWIDTH 630 0
DWIDTH 20 0
BBX 20 31 1 0
BITMAP
000010
007C30
003CF0
001FE0
000F80
000C00
000000
03FC00
1FFF00
3F07C0
1C01C0
0000E0
03C0E0
03C0F0
0780F0
0F80F0
0F00F0
0E00E0
1E00E0
1E01E0
3C01C0
3C03C0
380380
780780
780F00
701E00
703C00
F0F800
71E000
7FC000
3E0000
ENDCHAR
STARTCHAR dcaron
ENCODING 271
SWIDTH 557 0
DWIDTH 18 0
BBX 25 26 1 0
BITMAP
00006380
0000F780
0000E380
0001E380
0001C380
0001C700
0003C600
00038C00
00038000
00078000
00F70000
03FF0000
071F0000
0E0E0000
1C1E0000
3C1E0000
381C0000
783C0000
703C0000
F0380000
F0780000
F0F80000
F0B80000
71BF0000
7F3F0000
3C1C0000
ENDCHAR
STARTCHAR Dcroat
ENCODING 272
SWIDTH 630 0
DWIDTH 20 0
BBX 20 24 1 0
BITMAP
07FC00
1FFF00
3F0780
1C03C0
0001E0
03C0E0
0780E0
0780F0
0F00E0
7FF0E0
FFF0E0
FFE1E0
3C01E0
3C01C0
3803C0
780780
780700
700F00
701E00
F03C00
F0F800
F1E000
7FC000
3E0000
ENDCHAR
STARTCHAR dcroat
ENCODING 273
SWIDTH 557 0
DWIDTH 18 0
BBX 21 26 1 0
BITMAP
000060
0000F0
0000E0
0001E0
003FF8
007FF0
0003C0
000380
000380
000780
00F700
03FF00
071F00
0E0E00
1C1E00
3C1E00
381C00
783C00
703C00
F03800
F07800
F0F800
F0B800
71BF00
7F3F00
3C1C00
ENDCHAR
STARTCHAR Emacron
ENCODING 274
SWIDTH 509 0
DWIDTH 16 0
BBX 19 29 1 0
BITMAP
007FE0
00FFE0
00FFC0
000000
000000
003F00
01FF80
03E1C0
0781C0
0F01C0
0F0380
1E0780
1E1F00
1C1E00
1C0C00
1C0000
1E0000
0FE000
07E000
1F8000
3E0000
7C0000
780000
F00800
F01800
F03800
70F000
7FE000
1F8000
ENDCHAR
STARTCHAR emacron
ENCODING 275
SWIDTH 471 0
DWIDTH 15 0
BBX 15 21 1 0
BITMAP
07FE
0FFE
0FFC
0000
0000
01F0
07F8
0F38
1E3C
3C3C
3838
7878
78F0
73E0
FF80
F000
F000
F030
7070
3FE0
1F80
ENDCHAR
STARTCHAR Ebreve
ENCODING 276
SWIDTH 509 0
DWIDTH 16 0
BBX 19 31 1 0
BITMAP
003020
007060
0078E0
007FC0
003F80
001E00
000000
003F00
01FF80
03E1C0
0781C0
0F01C0
0F0380
1E0780
1E1F00
1C1E00
1C0C00
1C0000
1E0000
0FE000
07E000
1F8000
3E0000
7C0000
780000
F00800
F01800
F03800
70F000
7FE000
1F8000
ENDCHAR
STARTCHAR ebreve
ENCODING 277
SWIDTH 471 0
DWIDTH 15 0
BBX 16 24 1 0
BITMAP
0102
0387
038E
03FC
03F8
01F0
0000
0000
01F0
07F8
0F38
1E3C
3C3C
3838
7878
78F0
73E0
FF80
F000
F000
F030
7070
3FE0
1F80
ENDCHAR
STARTCHAR Edotaccent
ENCODING 278
SWIDTH 509 0
DWIDTH 16 0
BBX 18 31 1 0
BITMAP
000800
003E00
003E00
003E00
001C00
000000
000000
003F00
01FF80
03E1C0
0781C0
0F01C0
0F0380
1E0780
1E1F00
1C1E00
1C0C00
1C0000
1E0000
0FE000
07E000
1F8000
3E0000
7C0000
780000
F00800
F01800
F03800
70F000
7FE000
1F8000
ENDCHAR
STARTCHAR edotaccent
ENCODING 279
SWIDTH 471 0
DWIDTH 15 0
BBX 14 24 1 0
BITMAP
0070
00F8
00F0
00F0
0060
0000
0000
0000
01F0
07F8
0F38
1E3C
3C3C
3838
7878
78F0
73E0
FF80
F000
F000
F030
7070
3FE0
1F80
ENDCHAR
STARTCHAR Eogonek
ENCODING 280
SWIDTH 509 0
DWIDTH 16 0
BBX 18 32 1 -8
BITMAP
003F00
01FF80
03E1C0
0781C0
0F01C0
0F0380
1E0780
1E1F00
1C1E00
1C0C00
1C0000
1E0000
0FE000
07E000
1F8000
3E0000
7C0000
780000
F00800
F01800
F03800
70F000
7FE000
1F8000
070000
0E0000
1C0000
1C0000
3D0000
3F0000
3E0000
1C0000
ENDCHAR
STARTCHAR eogonek
ENCODING 281
SWIDTH 471 0
DWIDTH 15 0
BBX 14 24 1 -8
BITMAP
01F0
07F8
0F38
1E3C
3C3C
3838
7878
78F0
73E0
FF80
F000
F000
7030
7070
3FE0
1FC0
0300
0600
0C00
1C00
1C80
1F00
1F00
0C00
ENDCHAR
STARTCHAR Ecaron
ENCODING 282
SWIDTH 509 0
DWIDTH 16 0
BBX 19 31 1 0
BITMAP
000020
007860
0079E0
003FC0
001F00
001800
000000
003F00
01FF80
03E1C0
0781C0
0F01C0
0F0380
1E0780
1E1F00
1C1E00
1C0C00
1C0000
1E0000
0FE000
07E000
1F8000
3E0000
7C0000
780000
F00800
F01800
F03800
70F000
7FE000
1F8000
ENDCHAR
STARTCHAR ecaron
ENCODING 283
SWIDTH 471 0
DWIDTH 15 0
BBX 17 24 1 0
BITMAP
018180
03C380
01C700
01DE00
00F800
00E000
000000
000000
01F000
07F800
0F3800
1E3C00
3C3C00
383800
787800
78F000
73E000
FF8000
F00000
F00000
F03000
707000
3FE000
1F8000
ENDCHAR
STARTCHAR Gcircumflex
ENCODING 284
SWIDTH 598 0
DWIDTH 19 0
BBX 20 31 2 0
BITMAP
000180
0003C0
0007C0
001FE0
0078F0
002020
000000
003E00
00FF00
01E180
03C180
0781C0
0F0380
1E0780
3C0780
3C1F00
781F00
781E00
700000
F00000
F00080
F07F80
E0FF00
E03E00
E03800
E03800
E03000
F07000
70E000
7FC000
1F0000
ENDCHAR
STARTCHAR gcircumflex
ENCODING 285
SWIDTH 526 0
DWIDTH 17 0
BBX 16 34 1 -9
BITMAP
0004
000E
003E
007E
00E7
03C7
0703
0000
0000
01F0
07F7
0F1F
1E0E
3C1E
381E
781C
783C
F03C
F07C
F078
F0F8
F1F8
73F0
7F70
3CF0
00E0
00E0
01C0
01C0
0380
0700
0E00
7C00
7800
ENDCHAR
STARTCHAR Gbreve
ENCODING 286
SWIDTH 598 0
DWIDTH 19 0
BBX 20 31 2 0
BITMAP
000810
001C30
001C70
001FE0
001FC0
000700
000000
003E00
00FF00
01E180
03C180
0781C0
0F0380
1E0780
3C0780
3C1F00
781F00
781E00
700000
F00000
F00080
F07F80
E0FF00
E03E00
E03800
E03800
E03000
F07000
70E000
7FC000
1F0000
ENDCHAR
STARTCHAR gbreve
ENCODING 287
SWIDTH 526 0
DWIDTH 17 0
BBX 17 33 1 -9
BITMAP
00C080
01C180
01E380
01FF00
00FE00
007800
000000
000000
01F000
07F700
0F1F00
1E0E00
3C1E00
381E00
781C00
783C00
F03C00
F07C00
F07800
F0F800
F1F800
73F000
7F7000
3CF000
00E000
00E000
01C000
01C000
038000
070000
0E0000
7C0000
780000
ENDCHAR
STARTCHAR Gdotaccent
ENCODING 288
SWIDTH 598 0
DWIDTH 19 0
BBX 18 31 2 0
BITMAP
000400
000F00
001F00
000F00
000E00
000000
000000
003E00
00FF00
01E180
03C180
0781C0
0F0380
1E0780
3C0780
3C1F00
781F00
781E00
700000
F00000
F00080
F07F80
E0FF00
E03E00
E03800
E03800
E03000
F07000
70E000
7FC000
1F0000
ENDCHAR
STARTCHAR gdotaccent
ENCODING 289
SWIDTH 526 0
DWIDTH 17 0
BBX 16 33 1 -9
BITMAP
0038
007C
007C
0038
0010
0000
0000
0000
01F0
07F7
0F1F
1E0E
3C1E
381E
781C
783C
F03C
F07C
F078
F0F8
F1F8
73F0
7F70
3CF0
00E0
00E0
01C0
01C0
0380
0700
0E00
7C00
7800
ENDCHAR
STARTCHAR Gcommaaccent
ENCODING 290
SWIDTH 598 0
DWIDTH 19 0
BBX 18 33 2 -9
BITMAP
003E00
00FF00
01E180
03C180
0781C0
0F03C0
1E0380
3C0780
3C0F80
781F00
781E00
700C00
F00000
F00000
F00080
E07F80
E0FF00
E03E00
E03800
E03800
F03000
70E000
7FC000
1F0000
000000
100000
380000
7C0000
380000
380000
300000
700000
C00000
ENDCHAR
STARTCHAR gcommaaccent
ENCODING 291
SWIDTH 526 0
DWIDTH 17 0
BBX 16 34 1 -9
BITMAP
0006
001C
0038
0038
0078
003C
0000
0000
0000
01F0
07F7
0F1F
1E0E
3C1E
381E
781C
783C
F03C
F07C
F078
F0F8
F1F8
73F0
7F70
3CF0
00E0
00E0
01C0
01C0
0380
0700
0E00
7C00
7800
ENDCHAR
STARTCHAR Hcircumflex
ENCODING 292
SWIDTH 668 0
DWIDTH 21 0
BBX 24 31 -1 0
BITMAP
000060
0001E0
0003F0
000F70
001E78
000810
000000
07E00E
0FF00F
04F00E
00F00E
00E01E
00E01E
01E01C
01E03C
01C03C
01C038
03FFFC
07FFFC
0F8078
0780F0
0700E0
0F00E0
0E01C0
0E01C0
1C01C0
3C0380
380380
7803F0
F003F0
C001C0
ENDCHAR
STARTCHAR hcircumflex
ENCODING 293
SWIDTH 555 0
DWIDTH 18 0
BBX 16 31 0 0
BITMAP
0010
0038
00F8
01F8
03B8
0F1C
1C1C
01C0
01C0
01C0
01C0
03C0
03C0
0380
0380
078E
071F
073F
0E67
0EC7
0F8F
1F8E
1F1E
3E1C
3C3C
383C
7838
7038
F03F
E03F
601C
ENDCHAR
STARTCHAR Hbar
ENCODING 294
SWIDTH 668 0
DWIDTH 21 0
BBX 26 24 -1 0
BITMAP
07E00E00
0FF00F00
04F00E00
00F00E00
00E01E00
00FFFFC0
0FFFFF80
1FFFFF80
01C03800
01C03800
03FFFC00
07FFFC00
0F807000
0780E000
0700E000
0F00E000
0E01C000
0E01C000
1C01C000
1C038000
38038000
7803F000
F003F000
C001C000
ENDCHAR
STARTCHAR hbar
ENCODING 295
SWIDTH 555 0
DWIDTH 18 0
BBX 17 26 0 0
BITMAP
00C000
01E000
01E000
01E000
0FFE00
0FFC00
03C000
038000
038000
038000
070E00
071F00
073F80
0E6700
0EC700
0F8F00
1F0E00
1F1E00
1E1C00
3C3C00
383C00
783800
703800
F03F00
E03F00
601C00
ENDCHAR
STARTCHAR Itilde
ENCODING 296
SWIDTH 327 0
DWIDTH 10 0
BBX 16 31 0 0
BITMAP
01C1
03F3
07FF
0C7E
0C38
0000
0000
0FC0
1FE0
0CE0
00E0
01E0
01E0
01E0
01C0
03C0
03C0
0380
0380
0780
0780
0F00
0F00
0E00
1E00
1C00
3C00
3800
7000
F000
C000
ENDCHAR
STARTCHAR itilde
ENCODING 297
SWIDTH 286 0
DWIDTH 9 0
BBX 13 24 1 0
BITMAP
0E08
3F18
7FF0
67E0
43C0
0000
0000
0000
1E00
3E00
1E00
1E00
1C00
1C00
3800
3800
7000
7000
7000
E000
E000
FC00
F800
7000
ENDCHAR
STARTCHAR Imacron
ENCODING 298
SWIDTH 327 0
DWIDTH 10 0
BBX 16 29 0 0
BITMAP
07FF
0FFE
0FFC
0000
0000
0FC0
1FE0
0CE0
00E0
01E0
01E0
01E0
01C0
03C0
03C0
0380
0380
0780
0780
0F00
0F00
0E00
1E00
1C00
3C00
3800
7000
F000
C000
ENDCHAR
STARTCHAR imacron
ENCODING 299
SWIDTH 286 0
DWIDTH 9 0
BBX 12 21 1 0
BITMAP
7FF0
7FE0
FFC0
0000
0000
1E00
3E00
1E00
1E00
1C00
1C00
3800
3800
7000
7000
7000
E000
E000
FC00
F800
7000
ENDCHAR
STARTCHAR Ibreve
ENCODING 300
SWIDTH 327 0
DWIDTH 10 0
BBX 16 31 0 0
BITMAP
0183
0383
038E
03FE
01F8
00F0
0000
0FC0
1FE0
0CE0
00E0
01E0
01E0
01E0
01C0
03C0
03C0
0380
0380
0780
0780
0F00
0F00
0E00
1E00
1C00
3C00
3800
7000
F000
C000
ENDCHAR
STARTCHAR ibreve
ENCODING 301
SWIDTH 286 0
DWIDTH 9 0
BBX 12 24 1 0
BITMAP
1810
1830
3C70
1FE0
1FC0
0F00
0000
0000
1E00
3E00
1E00
1E00
1C00
1C00
3800
3800
7000
7000
7000
E000
E000
FC00
F800
7000
ENDCHAR
STARTCHAR Iogonek
ENCODING 302
SWIDTH 327 0
DWIDTH 10 0
BBX 15 32 -4 -8
BITMAP
00FC
01FE
00CE
000E
001E
001E
001E
001C
003C
003C
0038
0038
0078
0070
00F0
00F0
00E0
01E0
01C0
03C0
0380
0700
0E00
0C00
3800
7000
6000
E000
E800
F800
F800
E000
ENDCHAR
STARTCHAR iogonek
ENCODING 303
SWIDTH 297 0
DWIDTH 10 0
BBX 12 32 -1 -8
BITMAP
00E0
01F0
01F0
01E0
00C0
0000
0000
0000
0780
0780
0380
0380
0780
0700
0700
0E00
0E00
1C00
1C00
1C00
3800
3F00
3F00
1E00
1C00
3800
7000
7000
F000
FC00
F800
7000
ENDCHAR
STARTCHAR Idotaccent
ENCODING 304
SWIDTH 327 0
DWIDTH 10 0
BBX 12 31 0 0
BITMAP
0040
01E0
01F0
01E0
01C0
0000
0000
0FC0
1FE0
0CE0
00E0
01E0
01E0
01E0
01C0
03C0
03C0
0380
0380
0780
0780
0F00
0F00
0E00
1E00
1C00
3C00
3800
7000
F000
C000
ENDCHAR
STARTCHAR dotlessi
ENCODING 305
SWIDTH 286 0
DWIDTH 9 0
BBX 7 16 1 0
BITMAP
1E
3E
1E
1E
1C
1C
38
38
70
70
70
E0
E0
FC
F8
70
ENDCHAR
STARTCHAR IJ
ENCODING 306
SWIDTH 720 0
DWIDTH 23 0
BBX 24 33 0 -9
BITMAP
0FC07C
1FE3FF
0CE7CF
00EF8F
01E60F
01E00F
01E00E
01C01E
03C01E
03C01E
03801C
03803C
07803C
078078
0F0078
0F0078
0E00F0
1E00F0
1C01E0
3C01E0
3801E0
7003C0
F00380
C00780
000F00
000F00
001E00
003C00
003800
007800
01F000
03C000
078000
ENDCHAR
STARTCHAR ij
ENCODING 307
SWIDTH 567 0
DWIDTH 18 0
BBX 18 33 1 -9
BITMAP
078380
0787C0
0787C0
078780
020300
000000
000000
000000
1E0F00
3E1F00
1E0F00
1E0F00
1C0F00
1C0E00
380E00
380E00
701E00
701C00
701C00
E03C00
E03800
FC3800
F87800
707000
007000
00E000
01E000
01C000
038000
038000
070000
1E0000
180000
ENDCHAR
STARTCHAR Jcircumflex
ENCODING 308
SWIDTH 393 0
DWIDTH 13 0
BBX 22 40 -5 -9
BITMAP
000020
000070
0001F0
0003F8
000F38
001C1C
000000
001F80
007FC0
01F9E0
01E1E0
01C1C0
0003C0
0003C0
0003C0
0003C0
000780
000780
000780
000F00
000F00
000F00
001E00
001E00
003C00
003C00
003C00
007800
007800
00F000
00E000
01E000
03C000
03C000
078000
0F0000
1E0000
3C0000
F80000
E00000
ENDCHAR
STARTCHAR jcircumflex
ENCODING 309
SWIDTH 282 0
DWIDTH 9 0
BBX 17 33 -5 -9
BITMAP
000600
000F00
003F00
007700
01E700
03C380
010100
000000
007800
00F800
007800
007800
007800
007000
007000
00F000
00F000
00E000
00E000
01E000
01C000
01C000
03C000
038000
078000
070000
0F0000
0E0000
1C0000
3C0000
380000
F00000
C00000
ENDCHAR
STARTCHAR Kcommaaccent
ENCODING 310
SWIDTH 616 0
DWIDTH 20 0
BBX 22 33 -1 -9
BITMAP
07C038
1FE038
0CE03C
01E03C
01E03C
01E078
01E078
01C0F0
03C1E0
03C3C0
03C700
078E00
07BC00
07F000
0FF000
0F7800
0E3C00
1E1E00
1C1E00
3C0F00
380F80
7807C0
F003F8
C001E0
000000
010000
078000
078000
038000
038000
030000
060000
0C0000
ENDCHAR
STARTCHAR kcommaaccent
ENCODING 311
SWIDTH 497 0
DWIDTH 16 0
BBX 16 35 0 -9
BITMAP
0080
00E0
01E0
01E0
01C0
01C0
01C0
03C0
0380
0380
078E
070F
070F
0E0F
0E1E
0E3C
1CF8
1FE0
1F80
3F80
3BC0
79C0
71E0
F0FE
E0FE
6038
0000
0400
1E00
1E00
0E00
0C00
1C00
3800
3000
ENDCHAR
STARTCHAR kgreenlandic
ENCODING 312
SWIDTH 497 0
DWIDTH 16 0
BBX 16 16 0 0
BITMAP
0E0F
1F0F
0F07
0F0F
0E1E
0E3C
1EF8
1FE0
1F80
3F80
3DC0
79E0
79E0
F0FE
F07E
6038
ENDCHAR
STARTCHAR Lacute
ENCODING 313
SWIDTH 517 0
DWIDTH 17 0
BBX 20 31 -1 0
BITMAP
000070
000070
000070
0000E0
0001C0
000300
000000
000780
001FC0
003CE0
0078E0
00F0E0
00E0E0
01E1E0
01E3C0
03C7C0
03CF80
038F00
078E00
078000
070000
0F0000
0E0000
1E0000
1C0000
1C0000
380000
78FC00
FFFE00
FFFF00
780300
ENDCHAR
STARTCHAR lacute
ENCODING 314
SWIDTH 279 0
DWIDTH 9 0
BBX 13 31 1 0
BITMAP
0038
0038
0078
0070
01E0
0080
0000
0300
0380
0380
0780
0700
0700
0F00
0E00
0E00
1E00
1C00
1C00
3C00
3800
3800
7800
7000
7000
F000
E000
E000
FC00
FC00
7000
ENDCHAR
STARTCHAR Lcommaaccent
ENCODING 315
SWIDTH 517 0
DWIDTH 17 0
BBX 19 33 -1 -9
BITMAP
000780
001FC0
003CE0
0078E0
00F0E0
00E0E0
01E1E0
01E3C0
03C7C0
03CF80
038F00
078E00
078000
070000
0F0000
0E0000
1E0000
1C0000
1C0000
380000
78FC00
FFFE00
FFFF00
780300
000000
040000
1E0000
1E0000
0E0000
0E0000
1C0000
180000
300000
ENDCHAR
STARTCHAR lcommaaccent
ENCODING 316
SWIDTH 279 0
DWIDTH 9 0
BBX 10 35 0 -9
BITMAP
0080
01C0
01C0
01C0
03C0
03C0
0380
0380
0780
0700
0700
0F00
0E00
0E00
1E00
1C00
1C00
3C00
3800
3800
7800
7000
7000
7E00
7E00
3C00
0000
1000
7800
7800
3800
3000
7000
E000
C000
ENDCHAR
STARTCHAR Lcaron
ENCODING 317
SWIDTH 517 0
DWIDTH 17 0
BBX 25 30 -1 0
BITMAP
00000380
00000780
00000380
00000380
00000380
00000700
00078600
001FCC00
003CE000
0078E000
00F0E000
00E0E000
01E1E000
01E3C000
03C7C000
03CF8000
038F0000
078E0000
07800000
07000000
0F000000
0E000000
1E000000
1C000000
1C000000
38000000
78FC0000
FFFE0000
FFFF0000
78030000
ENDCHAR
STARTCHAR lcaron
ENCODING 318
SWIDTH 467 0
DWIDTH 15 0
BBX 17 26 1 0
BITMAP
038300
038780
038780
038700
078700
078600
070E00
071C00
0F0000
0E0000
0E0000
1E0000
1C0000
1C0000
3C0000
380000
380000
780000
700000
700000
F00000
E00000
E40000
FC0000
FC0000
780000
ENDCHAR
STARTCHAR Ldot
ENCODING 319
SWIDTH 668 0
DWIDTH 21 0
BBX 23 24 -1 0
BITMAP
000780
001FC0
003CE0
0078E0
00F0E0
00E0E0
01E1E0
01E3C0
03C7C0
03CF80
038F00
078E00
07801E
07003E
0F003E
0E001C
1E0000
1C0000
1C0000
380000
78FC00
FFFE00
FFFF00
780300
ENDCHAR
STARTCHAR ldot
ENCODING 320
SWIDTH 489 0
DWIDTH 16 0
BBX 14 26 1 0
BITMAP
0380
0380
0380
0380
0780
0780
0700
0700
0F00
0E00
0E00
1E00
1C00
1C3C
3C7C
387C
383C
7818
7000
7000
F000
E000
E400
FC00
FC00
7800
ENDCHAR
STARTCHAR Lslash
ENCODING 321
SWIDTH 517 0
DWIDTH 17 0
BBX 19 24 -1 0
BITMAP
000780
001FC0
0038E0
0078E0
00F0E0
00F0E0
01E1E0
01E1C0
03C3C0
03CF80
038F80
078F00
078000
07E000
3FF000
7FF000
5E0000
1E0000
1C0000
380000
787C00
FFFE00
FFFF00
780300
ENDCHAR
STARTCHAR lslash
ENCODING 322
SWIDTH 279 0
DWIDTH 9 0
BBX 14 27 1 0
BITMAP
0400
0E00
0FFC
07E0
0380
0780
0700
0700
0F00
0E00
0E00
0E00
1E00
1C00
1C00
3C00
3800
3800
7000
7000
7000
F000
E000
E000
FC00
FC00
7800
ENDCHAR
STARTCHAR Nacute
ENCODING 323
SWIDTH 708 0
DWIDTH 23 0
BBX 24 31 1 0
BITMAP
00000C
00000E
00001E
00001C
000038
000070
000000
00781C
00F81E
01F01F
01F00F
03F00F
07700F
06700E
0E700E
0C701C
1C701C
1C701C
387838
387830
307870
707860
7038E0
703CC0
E03DC0
E03D80
E01F80
E01F00
C00F00
C00F00
C00700
ENDCHAR
STARTCHAR nacute
ENCODING 324
SWIDTH 561 0
DWIDTH 18 0
BBX 17 25 0 0
BITMAP
000300
000380
000780
000700
000E00
001C00
003800
002000
000000
0E0F00
1F1F00
0F3F80
0F6780
0EC700
0F8700
1D8F00
1F0E00
1E1E00
3C1C00
383C00
783800
703800
F03F00
E03F00
601E00
ENDCHAR
STARTCHAR Ncommaaccent
ENCODING 325
SWIDTH 708 0
DWIDTH 23 0
BBX 24 33 1 -9
BITMAP
00781C
00F81E
01F01F
01F00F
03F00F
07700F
06700E
0E700E
0C701C
1C701C
1C701C
387838
387830
307870
707860
7038E0
703CC0
E03DC0
E03D80
E01F80
E01F00
C00F00
C00F00
C00700
000000
000000
01C000
01E000
01E000
01C000
01C000
038000
020000
ENDCHAR
STARTCHAR ncommaaccent
ENCODING 326
SWIDTH 561 0
DWIDTH 18 0
BBX 17 25 0 -9
BITMAP
0E0F00
1F1F00
0F3F80
0F6780
0EC700
0F8700
1D8F00
1F0E00
1E1E00
3C1C00
383C00
783800
703800
F03F00
E03F00
601E00
000000
040000
1E0000
1E0000
0E0000
0E0000
0C0000
180000
300000
ENDCHAR
STARTCHAR Ncaron
ENCODING 327
SWIDTH 708 0
DWIDTH 23 0
BBX 24 31 1 0
BITMAP
000001
000783
0003CF
0001FE
0000F0
0000C0
000000
00781C
00F81E
01F01F
01F00F
03F00F
07700F
06700E
0E700E
0C701C
1C701C
1C701C
387838
387830
307870
707860
7038E0
703CC0
E03DC0
E03D80
E01F80
E01F00
C00F00
C00F00
C00700
ENDCHAR
STARTCHAR ncaron
ENCODING 328
SWIDTH 561 0
DWIDTH 18 0
BBX 19 24 0 0
BITMAP
00E020
0070E0
0071E0
003380
003F00
003800
000000
000000
0E0F00
1F1F00
0F3F80
0F6780
0EC700
0F8700
1D8F00
1F0E00
1E1E00
3C1C00
383C00
783800
703800
F03F00
E03F00
601E00
ENDCHAR
STARTCHAR Eng
ENCODING 330
SWIDTH 698 0
DWIDTH 22 0
BBX 25 33 0 -9
BITMAP
00380E00
00781F00
00F80F00
01F80780
01B80700
03F80700
07780700
07780F00
0E780F00
0E780E00
1C780E00
1C381E00
1C381C00
383C1C00
383C1C00
383C3800
703C3800
701E7000
701E7000
701E6000
E00FE000
E007C000
E007C000
60078000
000F0000
000F0000
001E0000
003C0000
00780000
00F00000
01E00000
07C00000
07000000
ENDCHAR
STARTCHAR eng
ENCODING 331
SWIDTH 561 0
DWIDTH 18 0
BBX 17 25 0 -9
BITMAP
0E0E00
1F1F00
0F3F80
0F6780
0EC700
0F8700
1D8700
1F0700
1E0E00
3C0E00
381E00
781C00
701C00
F03C00
E03800
607800
007000
00F000
00E000
01C000
03C000
078000
070000
1E0000
1C0000
ENDCHAR
STARTCHAR Omacron
ENCODING 332
SWIDTH 655 0
DWIDTH 21 0
BBX 21 29 2 0
BITMAP
003FF8
003FF0
003FE0
000000
000000
001F00
00FFC0
01E1C0
03C0E0
0780E0
0F00E0
1E00E0
1E00E0
3C00E0
3C00E0
7801E0
7801E0
7001C0
F003C0
F003C0
F00780
E00780
E00F00
E01E00
E03C00
F07800
70F000
3FE000
1F8000
ENDCHAR
STARTCHAR omacron
ENCODING 333
SWIDTH 514 0
DWIDTH 16 0
BBX 17 21 1 0
BITMAP
01FF80
03FF80
03FF00
000000
000000
01F000
07F800
0F1C00
1E1C00
3C1C00
3C1C00
781C00
783C00
F03C00
F07800
F07800
F0F000
F0F000
71E000
7F8000
1F0000
ENDCHAR
STARTCHAR Obreve
ENCODING 334
SWIDTH 655 0
DWIDTH 21 0
BBX 21 31 2 0
BITMAP
000C08
001C18
001E30
001FF0
000FE0
000780
000000
001F00
00FFC0
01E1C0
03C0E0
0780E0
0F00E0
1E00E0
1E00E0
3C00E0
3C00E0
7801E0
7801E0
7001C0
F003C0
F003C0
F00780
E00780
E00F00
E01E00
E03C00
F07800
70F000
3FE000
1F8000
ENDCHAR
STARTCHAR obreve
ENCODING 335
SWIDTH 514 0
DWIDTH 16 0
BBX 17 24 1 0
BITMAP
00C080
01C180
01E380
01FF00
00FE00
007800
000000
000000
01F000
07F800
0F1C00
1E1C00
3C1C00
3C1C00
781C00
783C00
F03C00
F07800
F07800
F0F000
F0F000
71E000
7F8000
1F0000
ENDCHAR
STARTCHAR Ohungarumlaut
ENCODING 336
SWIDTH 655 0
DWIDTH 21 0
BBX 22 31 2 0
BITMAP
000618
00071C
000738
000E38
001C70
0038E0
000000
001F00
00FFC0
01E1C0
03C0E0
0780E0
0F00E0
1E00E0
1E00E0
3C00E0
3C00E0
7801E0
7801E0
7001C0
F003C0
F003C0
F00780
E00780
E00F00
E01E00
E03C00
F07800
70F000
3FE000
1F8000
ENDCHAR
STARTCHAR ohungarumlaut
ENCODING 337
SWIDTH 514 0
DWIDTH 16 0
BBX 18 25 1 0
BITMAP
003180
0071C0
007380
00E380
01C700
01CE00
031C00
061000
000000
01F000
07F800
0F1C00
1E1C00
3C1C00
3C1C00
781C00
783C00
F03C00
F07800
F07800
F0F000
F0F000
71E000
7F8000
1F0000
ENDCHAR
STARTCHAR OE
ENCODING 338
SWIDTH 900 0
DWIDTH 29 0
BBX 30 24 3 0
BITMAP
001F87F0
007FDFF8
01F0FE1C
03C0FC1C
07C0F81C
0780F03C
0F01E078
1E01E1F0
1E01C1E0
3C01C0C0
3C01C000
7801E000
7800FE00
78007E00
7001F800
7003E000
F007C000
F0078000
F00F0080
701F0180
703F0380
387F0F00
3FF7FE00
0FC1F800
ENDCHAR
STARTCHAR oe
ENCODING 339
SWIDTH 777 0
DWIDTH 25 0
BBX 23 16 2 0
BITMAP
01E078
07F9FC
0F3B8E
1E1F0E
3C1E0E
783E1E
783C3C
F03C7C
F03CF8
F07FE0
E07E00
E0F800
E1F808
F3FC38
7FDFF0
3F0FC0
ENDCHAR
STARTCHAR Racute
ENCODING 340
SWIDTH 623 0
DWIDTH 20 0
BBX 21 31 -1 0
BITMAP
000070
000070
0000F0
0001E0
0003C0
000200
000000
007F80
03FFE0
07C070
070070
026038
00F038
00E038
01E078
01E070
01C0F0
03C1E0
03C7C0
039F80
07FE00
077800
0F3800
0F1C00
0E1E00
1E0E00
1C0F00
3C0F00
780780
F003F0
E001E0
ENDCHAR
STARTCHAR racute
ENCODING 341
SWIDTH 407 0
DWIDTH 13 0
BBX 15 25 0 0
BITMAP
000C
000E
001E
001C
003C
0078
00E0
0080
0000
0E1C
1E3C
0F7C
0EFC
0ECC
0F80
1D00
1E00
1E00
3C00
3C00
3800
7800
7000
F000
6000
ENDCHAR
STARTCHAR Rcommaaccent
ENCODING 342
SWIDTH 623 0
DWIDTH 20 0
BBX 21 33 -1 -9
BITMAP
007F80
03FFE0
07C070
070070
026038
00F038
00E038
01E078
01E070
01C0F0
03C1E0
03C7C0
039F80
07FE00
077800
0F3800
0F1C00
0E1E00
1E0E00
1C0F00
3C0F00
780780
F003F0
E001E0
000000
000000
078000
078000
078000
030000
070000
0E0000
0C0000
ENDCHAR
STARTCHAR rcommaaccent
ENCODING 343
SWIDTH 407 0
DWIDTH 13 0
BBX 16 25 -2 -9
BITMAP
0387
078F
03DF
03BF
03B3
03E0
0740
0780
0780
0F00
0F00
0E00
1E00
1C00
3C00
1800
0000
1000
7800
7800
3800
3800
7000
6000
C000
ENDCHAR
STARTCHAR Rcaron
ENCODING 344
SWIDTH 623 0
DWIDTH 20 0
BBX 21 31 -1 0
BITMAP
000008
001E18
001E78
000FF0
0007C0
000600
000000
007F80
03FFE0
07C070
070070
026038
00F038
00E038
01E078
01E070
01C0F0
03C1E0
03C7C0
039F80
07FE00
077800
0F3800
0F1C00
0E1E00
1E0E00
1C0F00
3C0F00
780780
F003F0
E001E0
ENDCHAR
STARTCHAR rcaron
ENCODING 345
SWIDTH 407 0
DWIDTH 13 0
BBX 17 24 0 0
BITMAP
018080
01C180
01C780
00EE00
00FC00
00F000
000000
000000
0E1C00
1E3C00
0F7C00
0EFC00
0ECC00
0F8000
1D0000
1E0000
1E0000
3C0000
3C0000
380000
780000
700000
F00000
600000
ENDCHAR
STARTCHAR Sacute
ENCODING 346
SWIDTH 474 0
DWIDTH 15 0
BBX 18 31 1 0
BITMAP
0001C0
0001C0
0003C0
000780
000F00
000800
000000
00F800
03FE00
078700
0F0300
0E0300
1E0780
1C0700
1C0F00
1C1F00
1C3E00
1E1C00
1E0000
1F0000
0F8000
078000
07C000
03C000
61E000
E1E000
E0C000
E0C000
E1C000
7F0000
3E0000
ENDCHAR
STARTCHAR sacute
ENCODING 347
SWIDTH 423 0
DWIDTH 14 0
BBX 15 25 0 0
BITMAP
000E
000E
001E
001E
003C
0078
00E0
0080
0000
03F0
07F8
0E38
1C3C
1C38
1E10
1F00
0F00
0F80
07C0
03C0
61C0
E1C0
F3C0
7F80
3E00
ENDCHAR
STARTCHAR Scircumflex
ENCODING 348
SWIDTH 474 0
DWIDTH 15 0
BBX 18 31 1 0
BITMAP
000300
000700
001F80
003B80
00F1C0
004080
000000
00F800
03FE00
078700
0F0300
0E0300
1E0780
1C0700
1C0F00
1C1F00
1C3E00
1E1C00
1E0000
1F0000
0F8000
078000
07C000
03C000
61E000
E1E000
E0C000
E0C000
E1C000
7F0000
3E0000
ENDCHAR
STARTCHAR scircumflex
ENCODING 349
SWIDTH 423 0
DWIDTH 14 0
BBX 16 25 0 0
BITMAP
0008
001C
003C
007E
01EE
078E
0707
0000
0000
03F0
07F8
0E38
1C3C
1C38
1E10
1F00
0F00
0F80
07C0
03C0
61C0
E1C0
F3C0
7F80
3E00
ENDCHAR
STARTCHAR Scedilla
ENCODING 350
SWIDTH 474 0
DWIDTH 15 0
BBX 17 31 1 -7
BITMAP
00FC00
03FE00
078700
0F0300
0E0300
1E0780
1C0700
1C0F00
1C1F00
1C3E00
1E1C00
1E0000
1F0000
0F8000
078000
03C000
01C000
61E000
E0E000
E0C000
E1C000
FB8000
7F0000
3C0000
1C0000
0C0000
1C0000
1C0000
7C0000
780000
300000
ENDCHAR
STARTCHAR scedilla
ENCODING 351
SWIDTH 423 0
DWIDTH 14 0
BBX 14 23 0 -7
BITMAP
03F0
07F8
0E38
1C3C
1C38
1E10
1F00
0F00
0F80
07C0
03C0
63C0
E1C0
F1C0
7F80
3E00
1800
0C00
1C00
1C00
7C00
7800
7000
ENDCHAR
STARTCHAR Scaron
ENCODING 352
SWIDTH 474 0
DWIDTH 15 0
BBX 19 31 1 0
BITMAP
000020
007860
0079E0
003FC0
001F00
001800
000000
00F800
03FE00
078700
0F0300
0E0300
1E0780
1C0700
1C0F00
1C1F00
1C3E00
1E1C00
1E0000
1F0000
0F8000
078000
07C000
03C000
61E000
E1E000
E0C000
E0C000
E1C000
7F0000
3E0000
ENDCHAR
STARTCHAR scaron
ENCODING 353
SWIDTH 423 0
DWIDTH 14 0
BBX 18 24 0 0
BITMAP
00C0C0
01E1C0
00E380
00EF00
007C00
007000
000000
000000
03F000
07F800
0E3800
1C3C00
1C3800
1E1000
1F0000
0F0000
0F8000
07C000
03C000
61C000
E1C000
F3C000
7F8000
3E0000
ENDCHAR
STARTCHAR Tcommaaccent
ENCODING 354
SWIDTH 471 0
DWIDTH 15 0
BBX 18 33 2 -9
BITMAP
1F0040
7FF0C0
7FFFC0
F07F80
E0FF00
E0E000
61E000
01E000
01C000
03C000
03C000
038000
078000
078000
070000
0F0000
0F0000
0E0000
1E0000
1C0000
3C0000
380000
700000
E00000
000000
000000
780000
780000
380000
300000
700000
E00000
C00000
ENDCHAR
STARTCHAR tcommaaccent
ENCODING 355
SWIDTH 358 0
DWIDTH 11 0
BBX 13 29 0 -9
BITMAP
0080
01C0
03C0
0780
3FF8
1FC0
0E00
0E00
1E00
1C00
1C00
3C00
3800
3800
3800
3800
38C0
3F80
3F80
1E00
0000
1000
7800
7800
3800
3800
7000
6000
C000
ENDCHAR
STARTCHAR Tcaron
ENCODING 356
SWIDTH 471 0
DWIDTH 15 0
BBX 19 31 2 0
BITMAP
000020
00F060
0079E0
003FC0
001F00
001800
000000
1FC040
7FFFC0
FFFFC0
F0FF00
E0E000
E0E000
01E000
01E000
01C000
03C000
03C000
038000
078000
078000
070000
0F0000
0F0000
0E0000
1E0000
1C0000
3C0000
380000
F00000
E00000
ENDCHAR
STARTCHAR tcaron
ENCODING 357
SWIDTH 497 0
DWIDTH 16 0
BBX 16 26 3 0
BITMAP
0007
000F
0007
0007
0006
020E
070C
0718
0F00
0E00
7FE0
BF80
3C00
3800
3800
7800
7000
7000
F000
E000
E000
E000
E300
FF00
FE00
7800
ENDCHAR
STARTCHAR Tbar
ENCODING 358
SWIDTH 471 0
DWIDTH 15 0
BBX 18 24 2 0
BITMAP
1FC040
7FFFC0
FFFFC0
F0FF00
E0E000
E0E000
01E000
01E000
01C000
03C000
03C000
7FF000
FFE000
078000
070000
0F0000
0F0000
0E0000
1E0000
1C0000
3C0000
380000
F00000
E00000
ENDCHAR
STARTCHAR tbar
ENCODING 359
SWIDTH 358 0
DWIDTH 11 0
BBX 12 21 1 0
BITMAP
0100
0380
0780
0700
0F00
7FF0
3F80
1C00
1C00
3C00
3C00
FFE0
FFC0
7800
7000
7000
7000
7180
7F80
7F00
3C00
ENDCHAR
STARTCHAR Utilde
ENCODING 360
SWIDTH 624 0
DWIDTH 20 0
BBX 21 31 1 0
BITMAP
000E18
003F18
007FF0
0067E0
0043C0
000000
000000
078038
07C038
03C078
03C070
0380F0
0780E0
0701E0
0F03E0
0F03C0
1E07C0
1E07C0
1C0F80
3C0F80
381F80
781F00
703700
707F00
F06E00
E0CE00
E18E00
E38E00
FF0FC0
FE0FC0
780780
ENDCHAR
STARTCHAR utilde
ENCODING 361
SWIDTH 553 0
DWIDTH 18 0
BBX 18 24 1 0
BITMAP
007840
00FCC0
01FFC0
031F80
030F00
000000
000000
000000
1E0300
3E0780
1E0F00
1E0E00
1E1E00
1C1C00
3C3C00
387C00
787800
70F800
F1B000
E37000
E77000
FE7E00
FC7E00
703C00
ENDCHAR
STARTCHAR Umacron
ENCODING 362
SWIDTH 624 0
DWIDTH 20 0
BBX 21 29 1 0
BITMAP
003FF0
007FF0
007FE0
000000
000000
078038
07C038
03C078
03C070
0380F0
0780E0
0701E0
0F03E0
0F03C0
1E07C0
1E07C0
1C0F80
3C0F80
381F80
781F00
703700
707F00
F06E00
E0CE00
E18E00
E38E00
FF0FC0
FE0FC0
780780
ENDCHAR
STARTCHAR umacron
ENCODING 363
SWIDTH 553 0
DWIDTH 18 0
BBX 18 21 1 0
BITMAP
01FFC0
03FF80
03FF00
000000
000000
1E0300
3E0780
1E0F00
1E0E00
1E1E00
1C1C00
3C3C00
387C00
787800
70F800
F1B000
E37000
E77000
FE7E00
FC7E00
703C00
ENDCHAR
STARTCHAR Ubreve
ENCODING 364
SWIDTH 624 0
DWIDTH 20 0
BBX 21 31 1 0
BITMAP
001810
003830
003C70
003FE0
001FC0
000F00
000000
078038
07C038
03C078
03C070
0380F0
0780E0
0701E0
0F03E0
0F03C0
1E07C0
1E07C0
1C0F80
3C0F80
381F80
781F00
703700
707F00
F06E00
E0CE00
E18E00
E38E00
FF0FC0
FE0FC0
780780
ENDCHAR
STARTCHAR ubreve
ENCODING 365
SWIDTH 553 0
DWIDTH 18 0
BBX 18 24 1 0
BITMAP
0060C0
00E0C0
00E180
00FF80
007F00
003C00
000000
000000
1E0300
3E0780
1E0F00
1E0E00
1E1E00
1C1C00
3C3C00
387C00
787800
70F800
F1B000
E37000
E77000
FE7E00
FC7E00
703C00
ENDCHAR
STARTCHAR Uring
ENCODING 366
SWIDTH 624 0
DWIDTH 20 0
BBX 21 31 1 0
BITMAP
0007C0
000FE0
001CE0
001CE0
0018E0
0018E0
0019C0
078F38
07C038
03C078
03C070
0380F0
0780E0
0701E0
0F03E0
0F03C0
1E07C0
1E07C0
1C0F80
3C0F80
381F80
781F00
703700
707F00
F06E00
E0CE00
E18E00
E38E00
FF0FC0
FE0FC0
780780
ENDCHAR
STARTCHAR uring
ENCODING 367
SWIDTH 553 0
DWIDTH 18 0
BBX 17 25 1 0
BITMAP
001E00
007F00
00E380
00E380
00E700
00FF00
007C00
000000
000000
1E0300
3E0780
1E0F00
1E0E00
1E1E00
1C1C00
3C3C00
387C00
787800
70F800
F1B000
E37000
E77000
FE7E00
FC7E00
703C00
ENDCHAR
STARTCHAR Uhungarumlaut
ENCODING 368
SWIDTH 624 0
DWIDTH 20 0
BBX 21 31 1 0
BITMAP
000630
000E38
000E38
001C70
0018E0
0031C0
000000
078038
07C038
03C078
03C070
0380F0
0780E0
0701E0
0F03E0
0F03C0
1E07C0
1E07C0
1C0F80
3C0F80
381F80
781F00
703700
707F00
F06E00
E0CE00
E18E00
E38E00
FF0FC0
FE0FC0
780780
ENDCHAR
STARTCHAR uhungarumlaut
ENCODING 369
SWIDTH 553 0
DWIDTH 18 0
BBX 18 25 1 0
BITMAP
0030C0
0039C0
0071C0
0073C0
00E380
01C700
038E00
020800
000000
1E0300
3E0780
1E0F00
1E0E00
1E1E00
1C1C00
3C3C00
387C00
787800
70F800
F1B000
E37000
E77000
FE7E00
FC7E00
703C00
ENDCHAR
STARTCHAR Uogonek
ENCODING 370
SWIDTH 684 0
DWIDTH 22 0
BBX 21 32 2 -8
BITMAP
078038
07C038
03C078
038070
0380F0
0780E0
0701E0
0F03E0
0F03C0
1E07C0
1E07C0
1C0F80
3C0F80
381F00
781F00
703700
707F00
F06E00
E0CE00
E18E00
E38E00
FF0FC0
FC0FC0
780780
000600
000C00
001C00
001800
003900
003F00
003E00
001C00
ENDCHAR
STARTCHAR uogonek
ENCODING 371
SWIDTH 553 0
DWIDTH 18 0
BBX 17 24 1 -8
BITMAP
1E0300
3E0780
1E0F00
1E0E00
1E1E00
1C1C00
3C3C00
387C00
787800
70F800
F1B000
E37000
E77000
FE7E00
FC7E00
703800
003000
006000
00E000
00C000
01C800
01F800
01F000
00E000
ENDCHAR
STARTCHAR Wcircumflex
ENCODING 372
SWIDTH 941 0
DWIDTH 30 0
BBX 30 31 2 0
BITMAP
00001800
00003C00
00007C00
0001EE00
00078F00
00020200
00000000
1F000038
7F800078
7F80007C
71C0003C
03C0003C
0780703C
0780F03C
0F03E03C
0F07C03C
1E0FC038
1E1F8038
3C1F8078
3C3F0070
387700F0
78EF00E0
71CF00E0
71CE01C0
F38E0380
F30E0380
E60E0700
EE0E0E00
EC0E1C00
7807F000
3003C000
ENDCHAR
STARTCHAR wcircumflex
ENCODING 373
SWIDTH 750 0
DWIDTH 24 0
BBX 23 25 1 0
BITMAP
000180
0003C0
0007C0
000FC0
003DC0
00F8E0
00E0E0
000000
000000
1C001C
3E063C
1E0E1E
1E1E1E
1C1C1E
1C3C1C
1C781C
38781C
38F818
79F038
71F030
737060
E670E0
FC7BC0
F83F00
601E00
ENDCHAR
STARTCHAR Ycircumflex
ENCODING 374
SWIDTH 580 0
DWIDTH 19 0
BBX 21 40 1 -9
BITMAP
000100
000380
000780
001FC0
007DE0
0070E0
000000
078038
07C038
03C078
038070
0380F0
0781E0
0701E0
0F03E0
0E03C0
1E07C0
1E07C0
1C0F80
3C0F80
381F00
781F00
703F00
F07E00
F06E00
E0DE00
E19C00
E33C00
FE3800
FC7800
787000
00F000
00E000
01C000
03C000
078000
0F0000
1E0000
7C0000
700000
ENDCHAR
STARTCHAR ycircumflex
ENCODING 375
SWIDTH 549 0
DWIDTH 18 0
BBX 17 34 1 -9
BITMAP
000400
000E00
003E00
007E00
00EF00
03C700
070700
000000
000000
1E0300
1E0780
0E0F00
1E0F00
1E1E00
1C1E00
3C3E00
383C00
787C00
78FC00
71F800
F3B800
E77800
FE7000
FC7000
70E000
00E000
01C000
01C000
038000
070000
0F0000
1E0000
780000
200000
ENDCHAR
STARTCHAR Ydieresis
ENCODING 376
SWIDTH 580 0
DWIDTH 19 0
BBX 21 39 1 -9
BITMAP
007870
0078F0
00F8F0
0078F0
002040
000000
078038
07C038
03C078
038070
0380F0
0781E0
0701E0
0F03E0
0E03C0
1E07C0
1E07C0
1C0F80
3C0F80
381F00
781F00
703F00
F07E00
F06E00
E0DE00
E19C00
E33C00
FE3800
FC7800
787000
00F000
00E000
01C000
03C000
078000
0F0000
1E0000
7C0000
700000
ENDCHAR
STARTCHAR Zacute
ENCODING 377
SWIDTH 501 0
DWIDTH 16 0
BBX 19 31 0 0
BITMAP
000180
0003C0
0003C0
000780
000E00
000800
000000
0C03C0
0FFFE0
0FFDE0
07E3E0
0007C0
000780
000F80
001F00
003E00
007C00
00F800
01F000
03E000
07C000
0F8000
0F0000
1E0000
3C0000
780000
700000
F1FC00
EFFC00
FFFE00
F80600
ENDCHAR
STARTCHAR zacute
ENCODING 378
SWIDTH 430 0
DWIDTH 14 0
BBX 16 25 0 0
BITMAP
0006
000F
000E
001E
001C
0038
0070
00C0
0000
0C0C
0FFE
0FFE
003C
0078
00F0
01E0
07C0
0F80
1E00
3C00
3800
7080
FFE0
FFF0
7030
ENDCHAR
STARTCHAR Zdotaccent
ENCODING 379
SWIDTH 501 0
DWIDTH 16 0
BBX 19 31 0 0
BITMAP
000800
003C00
003E00
003C00
001C00
000000
000000
0C03C0
0FFFE0
0FFDE0
07E3E0
0007C0
000780
000F80
001F00
003E00
007C00
00F800
01F000
03E000
07C000
0F8000
0F0000
1E0000
3C0000
780000
700000
F1FC00
EFFC00
FFFE00
F80600
ENDCHAR
STARTCHAR zdotaccent
ENCODING 380
SWIDTH 430 0
DWIDTH 14 0
BBX 15 24 0 0
BITMAP
0070
00F8
00F8
00F0
0060
0000
0000
0000
0C0C
0FFE
0FFE
003C
0078
00F0
01E0
07C0
0F80
1E00
3C00
3800
7080
FFE0
FFF0
7030
ENDCHAR
STARTCHAR Zcaron
ENCODING 381
SWIDTH 501 0
DWIDTH 16 0
BBX 19 31 0 0
BITMAP
000020
00F060
0079E0
003FC0
003E00
001800
000000
0C03C0
0FFFE0
0FFDE0
07E3E0
0007C0
000780
000F80
001F00
003E00
007C00
00F800
01F000
03E000
07C000
0F8000
0F0000
1E0000
3C0000
780000
700000
F1FC00
EFFC00
FFFE00
F80600
ENDCHAR
STARTCHAR zcaron
ENCODING 382
SWIDTH 430 0
DWIDTH 14 0
BBX 17 24 0 0
BITMAP
018180
03C380
01C780
01DE00
00F800
00E000
000000
000000
0C0C00
0FFE00
0FFE00
003C00
007800
00F000
01E000
07C000
0F8000
1E0000
3C0000
380000
708000
FFE000
FFF000
703000
ENDCHAR
STARTCHAR florin
ENCODING 402
SWIDTH 466 0
DWIDTH 15 0
BBX 25 34 -6 -9
BITMAP
00000C00
00003F00
00007300
0000E180
0001C380
0001C780
00038F00
00038F00
00070E00
00070000
000F0000
000FE000
003FF000
007FF000
00FE0000
001C0000
001C0000
003C0000
003C0000
00380000
00380000
00780000
00700000
00700000
00700000
00F00000
00E00000
00E00000
01C00000
61C00000
E3800000
E7800000
FF000000
3E000000
ENDCHAR
STARTCHAR AEacute
ENCODING 508
SWIDTH 878 0
DWIDTH 28 0
BBX 33 31 -2 0
BITMAP
0000007000
0000007000
000000F000
000001E000
0000038000
0000020000
0000000000
00003EFC00
0000FFFF00
0001FFC300
0003CF0380
00079E0380
000F1E0700
000E3C1F00
001C383E00
0038383C00
0038781800
0070380000
00E0380000
00EFFFC000
01FFFFC000
07FFFF0000
0F807C0000
0700F80000
0F00F00000
0E01E02000
1E01E03000
1C01E07000
3800E1E000
F000FFC000
E0003F0000
ENDCHAR
STARTCHAR aeacute
ENCODING 509
SWIDTH 770 0
DWIDTH 25 0
BBX 23 25 1 0
BITMAP
000180
0001C0
0003C0
0003C0
000780
000F00
001C00
001000
000000
01E778
07FFFE
0F1F9E
1E1F0E
3C1E1E
381C1E
783C3C
703CF8
F07FF0
F07F80
F0F800
F0F800
F1BC08
F33C38
7E1FF0
3C0FE0
ENDCHAR
STARTCHAR Scommaaccent
ENCODING 536
SWIDTH 474 0
DWIDTH 15 0
BBX 17 33 1 -9
BITMAP
00F800
03FE00
078700
0F0300
0E0300
1E0780
1C0700
1C0F00
1C1F00
1C3E00
1E1C00
1E0000
1F0000
0F8000
078000
07C000
03C000
61E000
E1E000
E0C000
E0C000
E1C000
7F0000
3E0000
000000
080000
3C0000
3C0000
1C0000
180000
380000
700000
600000
ENDCHAR
STARTCHAR scommaaccent
ENCODING 537
SWIDTH 423 0
DWIDTH 14 0
BBX 14 25 0 -9
BITMAP
03F0
07F8
0E38
1C3C
1C38
1E10
1F00
0F00
0F80
07C0
03C0
61C0
E1C0
F3C0
7F80
3E00
0000
0800
3C00
3C00
1C00
1800
3800
7000
6000
ENDCHAR
STARTCHAR dotlessj
ENCODING 567
SWIDTH 277 0
DWIDTH 9 0
BBX 14 25 -6 -9
BITMAP
0038
007C
003C
003C
0038
0038
0078
0078
0070
0070
00F0
00F0
00E0
01E0
01C0
01C0
03C0
0380
0700
0700
0E00
1E00
3C00
7800
E000
ENDCHAR
STARTCHAR circumflex
ENCODING 710
SWIDTH 354 0
DWIDTH 11 0
BBX 11 7 0 18
BITMAP
0080
01C0
07C0
0FC0
1CE0
78E0
E060
ENDCHAR
STARTCHAR caron
ENCODING 711
SWIDTH 381 0
DWIDTH 12 0
BBX 11 6 1 18
BITMAP
E020
70E0
71E0
3780
3E00
3800
ENDCHAR
STARTCHAR breve
ENCODING 728
SWIDTH 344 0
DWIDTH 11 0
BBX 10 6 1 18
BITMAP
6040
60C0
F1C0
7F80
7F00
3C00
ENDCHAR
STARTCHAR dotaccent
ENCODING 729
SWIDTH 217 0
DWIDTH 7 0
BBX 5 5 2 19
BITMAP
70
F8
F8
70
20
ENDCHAR
STARTCHAR ring
ENCODING 730
SWIDTH 402 0
DWIDTH 13 0
BBX 9 8 4 17
BITMAP
1E00
3F00
7380
E380
E380
E700
7F00
3C00
ENDCHAR
STARTCHAR ogonek
ENCODING 731
SWIDTH 311 0
DWIDTH 10 0
BBX 8 10 1 -8
BITMAP
01
06
0C
18
30
70
70
FC
FC
78
ENDCHAR
STARTCHAR tilde
ENCODING 732
SWIDTH 397 0
DWIDTH 13 0
BBX 12 5 2 19
BITMAP
1C10
7E30
7FF0
C7E0
8380
ENDCHAR
STARTCHAR hungarumlaut
ENCODING 733
SWIDTH 392 0
DWIDTH 13 0
BBX 12 8 1 17
BITMAP
0820
0C70
1C70
1CF0
38E0
71C0
6380
C700
ENDCHAR
STARTCHAR pi
ENCODING 960
SWIDTH 640 0
DWIDTH 20 0
BBX 21 16 0 0
BITMAP
07FFF8
1FFFF8
3FFFF0
018380
018780
038700
030F00
070E00
060E00
0E1E00
1E1E00
1C1C00
3C1C00
F81F80
F01F80
E00F00
ENDCHAR
STARTCHAR uni1E02
ENCODING 7682
SWIDTH 551 0
DWIDTH 18 0
BBX 18 31 1 0
BITMAP
000800
001E00
003E00
003E00
001C00
000000
000000
03FC00
1FFF00
3F0380
3801C0
1381C0
0781C0
0781C0
0F03C0
1F0380
1E0780
1E1F00
3C3E00
3FF800
3FF800
7C3C00
701C00
701E00
701E00
601C00
E03C00
607800
70F000
7FE000
1F0000
ENDCHAR
STARTCHAR uni1E03
ENCODING 7683
SWIDTH 525 0
DWIDTH 17 0
BBX 17 26 1 0
BITMAP
030000
038000
078700
078F80
070F80
070F00
0F0600
0E0000
0E0000
1E0000
1C7800
1DFC00
1B1C00
3E1E00
3C1E00
3C1E00
781E00
781C00
703C00
F03C00
E07800
E07800
E0F000
63E000
7F8000
3E0000
ENDCHAR
STARTCHAR uni1E0A
ENCODING 7690
SWIDTH 630 0
DWIDTH 20 0
BBX 20 31 1 0
BITMAP
000400
001F00
001F00
001F00
000E00
000000
000000
03FC00
1FFF00
3F07C0
1C01C0
0000E0
03C0E0
03C0F0
0780F0
0F80F0
0F00F0
0E00E0
1E00E0
1E01E0
3C01C0
3C03C0
380380
780780
780F00
701E00
703C00
F0F800
71E000
7FC000
3E0000
ENDCHAR
STARTCHAR uni1E0B
ENCODING 7691
SWIDTH 557 0
DWIDTH 18 0
BBX 20 26 1 0
BITMAP
000060
0000F0
0380E0
07C1E0
07C1C0
0781C0
0303C0
000380
000380
000780
00F700
03FF00
071F00
0E0E00
1C1E00
3C1E00
381C00
783C00
703C00
F03800
F07800
F0F800
F0B800
71BF00
7F3F00
3C1C00
ENDCHAR
STARTCHAR uni1E1E
ENCODING 7710
SWIDTH 518 0
DWIDTH 17 0
BBX 19 31 1 0
BITMAP
000400
000F00
001F00
001F00
000E00
000000
000000
1FE060
3FFFE0
7FFFC0
787700
70E000
60E000
00E000
01E000
01C000
03C000
03C000
03FC00
0FFE00
1FFE00
1F8000
0F0000
0F0000
0E0000
1E0000
1C0000
3C0000
780000
F00000
E00000
ENDCHAR
STARTCHAR uni1E1F
ENCODING 7711
SWIDTH 393 0
DWIDTH 13 0
BBX 18 35 -1 -4
BITMAP
001C00
003E00
003E00
001C00
000F00
001F80
0039C0
0079C0
0071C0
00F3C0
00E3C0
00E380
01E000
01C000
01C000
01C000
03F800
07FE00
1FFE00
1F8000
070000
070000
0F0000
0F0000
0E0000
0E0000
1E0000
1C0000
1C0000
3C0000
380000
780000
780000
F00000
E00000
ENDCHAR
STARTCHAR uni1E40
ENCODING 7744
SWIDTH 931 0
DWIDTH 30 0
BBX 33 31 -3 0
BITMAP
0000002000
000000F800
000000F800
000000F800
0000007000
0000000000
0000000000
0000780780
0000F80F80
0003F81F80
0003783F00
0006707700
000EF0EF00
001CE0CE00
0018E1CE00
0039E39E00
0071C39C00
0071C71C00
00E1C73C00
00E3CE3800
01C38E3800
01C39C7800
03839C7800
0703B87000
0703B07000
0E07F0F000
0E07E0F000
1C07E0F000
3803C07E00
F803807E00
E003803C00
ENDCHAR
STARTCHAR uni1E41
ENCODING 7745
SWIDTH 814 0
DWIDTH 26 0
BBX 25 24 0 0
BITMAP
0001C000
0003E000
0003C000
0003C000
00018000
00000000
00000000
00000000
0E0E0F00
1F1F1F80
0F3F3F80
0F737780
0EE76780
0FC6C700
1D8F8F00
1F0F0E00
1E0F1E00
3C1E1C00
381C3C00
783C3800
70383800
F0783F00
E0703F00
60301E00
ENDCHAR
STARTCHAR uni1E56
ENCODING 7766
SWIDTH 553 0
DWIDTH 18 0
BBX 21 31 -1 0
BITMAP
000080
0003E0
0003E0
0003C0
0001C0
000000
000000
007F00
03FFE0
07C0F0
0F0070
066078
00F078
00E078
01E078
01E0F0
03C1F0
03C3E0
0387C0
079F80
07FE00
07F000
0F0000
0F0000
1E0000
1E0000
3C0000
380000
780000
F00000
E00000
ENDCHAR
STARTCHAR uni1E57
ENCODING 7767
SWIDTH 550 0
DWIDTH 18 0
BBX 18 33 -2 -9
BITMAP
000E00
001F00
001F00
001E00
000C00
000000
000000
000000
078F00
079FC0
03B1C0
03E1C0
07C1C0
07C1C0
0781C0
0703C0
0F03C0
0F0380
0E0780
0E0F00
1E1E00
1F3C00
1FF800
1DE000
380000
380000
380000
780000
700000
700000
E00000
E00000
C00000
ENDCHAR
STARTCHAR uni1E60
ENCODING 7776
SWIDTH 474 0
DWIDTH 15 0
BBX 17 31 1 0
BITMAP
000800
003E00
003E00
003E00
001C00
000000
000000
00F800
03FE00
078700
0F0300
0E0300
1E0780
1C0700
1C0F00
1C1F00
1C3E00
1E1C00
1E0000
1F0000
0F8000
078000
07C000
03C000
61E000
E1E000
E0C000
E0C000
E1C000
7F0000
3E0000
ENDCHAR
STARTCHAR uni1E61
ENCODING 7777
SWIDTH 423 0
DWIDTH 14 0
BBX 14 24 0 0
BITMAP
0038
0078
0078
0078
0020
0000
0000
0000
03F0
07F8
0E38
1C3C
1C38
1E10
1F00
0F00
0F80
07C0
03C0
61C0
E1C0
F3C0
7F80
3E00
ENDCHAR
STARTCHAR uni1E6A
ENCODING 7786
SWIDTH 430 0
DWIDTH 14 0
BBX 18 31 1 0
BITMAP
000800
003E00
003E00
003E00
001C00
000000
000000
1FC040
7FFFC0
7FFFC0
F07F80
E0F000
60E000
01E000
01E000
01C000
03C000
03C000
03C000
038000
078000
078000
070000
0F0000
0E0000
0E0000
1C0000
1C0000
380000
700000
E00000
ENDCHAR
STARTCHAR uni1E6B
ENCODING 7787
SWIDTH 358 0
DWIDTH 11 0
BBX 11 25 2 0
BITMAP
01C0
03E0
03E0
01C0
0080
0380
0780
0700
0F00
7FE0
7F80
1C00
3C00
3800
3800
7800
7000
7000
7000
7000
F000
F180
7F00
7E00
3C00
ENDCHAR
STARTCHAR Wgrave
ENCODING 7808
SWIDTH 941 0
DWIDTH 30 0
BBX 30 31 2 0
BITMAP
0000C000
0001C000
0001E000
0000E000
00007000
00000800
00000000
1F000038
7F800078
7F80007C
71C0003C
03C0003C
0780703C
0781F03C
0F03E03C
0F07C03C
1E0FC038
1E1F8078
3C3F8078
3C3F0070
387700F0
78EF00E0
71CE01E0
71CE01C0
F38E0380
E70E0780
E60E0F00
EC0E1E00
FC0F3C00
7807F000
3003C000
ENDCHAR
STARTCHAR wgrave
ENCODING 7809
SWIDTH 750 0
DWIDTH 24 0
BBX 23 25 1 0
BITMAP
000E00
001E00
001C00
001C00
001C00
000E00
000600
000200
000000
1C001C
3E063C
1E0E1E
1E1E1E
1C1C1E
1C3C1C
1C781C
38781C
38F818
79F038
71F030
737060
E670E0
FC7BC0
F83F00
601E00
ENDCHAR
STARTCHAR Wacute
ENCODING 7810
SWIDTH 941 0
DWIDTH 30 0
BBX 30 31 2 0
BITMAP
00000600
00000F00
00000E00
00001C00
00003800
00006000
00000000
1F000038
7F800078
7F80007C
71C0003C
03C0003C
0780703C
0780F03C
0F03E03C
0F07C03C
1E0FC038
1E1F8038
3C1F8078
3C3F0070
387700F0
78EF00E0
71CF00E0
71CE01C0
F38E0380
F30E0380
E60E0700
EE0E0E00
EC0E1C00
7807F000
3003C000
ENDCHAR
STARTCHAR wacute
ENCODING 7811
SWIDTH 750 0
DWIDTH 24 0
BBX 23 25 1 0
BITMAP
000180
0003C0
0003C0
000780
000700
000E00
001C00
001000
000000
1C001C
3E063C
1E0E1E
1E1E1E
1C1C1E
1C3C1C
1C781C
38781C
38F818
79F038
71F030
737060
E670E0
FC7BC0
F83F00
601E00
ENDCHAR
STARTCHAR Wdieresis
ENCODING 7812
SWIDTH 941 0
DWIDTH 30 0
BBX 30 31 2 0
BITMAP
00010200
0007C780
0007CF80
0007CF80
00038700
00000000
00000000
1F000038
7F800078
7F80007C
71C0003C
03C0003C
0780703C
0781F03C
0F03E03C
0F07C03C
1E0FC038
1E1F8078
3C3F8078
3C3F0070
387700F0
78EF00E0
71CE01E0
71CE01C0
F38E0380
E70E0780
E60E0F00
EC0E1E00
FC0F3C00
7807F000
3003C000
ENDCHAR
STARTCHAR wdieresis
ENCODING 7813
SWIDTH 750 0
DWIDTH 24 0
BBX 23 24 1 0
BITMAP
0070F0
00F8F0
00F9F0
0078F0
002040
000000
000000
000000
1C001C
3E063C
1E0E1E
1E1E1E
1C1C1E
1C3C1C
1C781C
38781C
38F818
79F038
71F030
737060
E670E0
FC7BC0
F83F00
601E00
ENDCHAR
STARTCHAR Ygrave
ENCODING 7922
SWIDTH 580 0
DWIDTH 19 0
BBX 21 40 1 -9
BITMAP
000800
001800
003C00
001C00
001E00
000700
000000
078038
07C038
03C078
038070
0380F0
0781E0
0701E0
0F03E0
0E03C0
1E07C0
1E07C0
1C0F80
3C0F80
381F00
781F00
703F00
F07E00
F06E00
E0DE00
E19C00
E33C00
FE3800
FC7800
787000
00F000
00E000
01C000
03C000
078000
0F0000
1E0000
7C0000
700000
ENDCHAR
STARTCHAR ygrave
ENCODING 7923
SWIDTH 549 0
DWIDTH 18 0
BBX 17 34 1 -9
BITMAP
007000
00F000
00F000
00F000
007000
007000
003000
001800
000000
1E0300
1E0780
0E0F00
1E0F00
1E1E00
1C1E00
3C3E00
383C00
787C00
78FC00
71F800
F3B800
E77800
FE7000
FC7000
70E000
00E000
01C000
01C000
038000
070000
0F0000
1E0000
780000
200000
ENDCHAR
STARTCHAR endash
ENCODING 8211
SWIDTH 751 0
DWIDTH 24 0
BBX 19 3 3 8
BITMAP
7FFFE0
FFFFE0
FFFFC0
ENDCHAR
STARTCHAR emdash
ENCODING 8212
SWIDTH 1066 0
DWIDTH 34 0
BBX 29 3 3 8
BITMAP
7FFFFFF8
FFFFFFF8
FFFFFFF0
ENDCHAR
STARTCHAR quoteleft
ENCODING 8216
SWIDTH 268 0
DWIDTH 9 0
BBX 6 8 4 18
BITMAP
0C
38
70
70
F0
F0
78
70
ENDCHAR
STARTCHAR quoteright
ENCODING 8217
SWIDTH 268 0
DWIDTH 9 0
BBX 5 8 5 18
BITMAP
30
78
78
38
38
70
60
C0
ENDCHAR
STARTCHAR quotesinglbase
ENCODING 8218
SWIDTH 268 0
DWIDTH 9 0
BBX 6 8 0 -4
BITMAP
38
78
3C
3C
38
38
70
C0
ENDCHAR
STARTCHAR quotedblleft
ENCODING 8220
SWIDTH 485 0
DWIDTH 16 0
BBX 12 8 5 18
BITMAP
1C30
38E0
71C0
E380
E380
E3C0
F3C0
E380
ENDCHAR
STARTCHAR quotedblright
ENCODING 8221
SWIDTH 480 0
DWIDTH 15 0
BBX 12 8 5 18
BITMAP
3860
3CF0
3CF0
3870
38E0
30E0
61C0
C300
ENDCHAR
STARTCHAR quotedblbase
ENCODING 8222
SWIDTH 463 0
DWIDTH 15 0
BBX 12 8 0 -4
BITMAP
38E0
78F0
3CF0
3CF0
3860
38E0
71C0
C380
ENDCHAR
STARTCHAR dagger
ENCODING 8224
SWIDTH 488 0
DWIDTH 16 0
BBX 13 24 3 0
BITMAP
0380
03C0
03C0
03C0
07C0
0798
FFF8
7FF0
0700
0F00
0F00
0E00
1E00
1E00
1C00
1C00
3800
3800
3000
7000
6000
E000
C000
8000
ENDCHAR
STARTCHAR daggerdbl
ENCODING 8225
SWIDTH 488 0
DWIDTH 16 0
BBX 14 24 2 0
BITMAP
01C0
01E0
01E0
01E0
01E0
03CC
7FFC
3FF8
0380
0780
0780
0700
0F00
0F60
FFE0
7FC0
1C00
1C00
1C00
3800
3000
7000
6000
4000
ENDCHAR
STARTCHAR bullet
ENCODING 8226
SWIDTH 437 0
DWIDTH 14 0
BBX 7 8 4 6
BITMAP
3C
FE
FE
FE
FE
FE
7C
20
ENDCHAR
STARTCHAR ellipsis
ENCODING 8230
SWIDTH 810 0
DWIDTH 26 0
BBX 22 5 1 0
BITMAP
707838
F87C7C
F8F87C
F0787C
603038
ENDCHAR
STARTCHAR perthousand
ENCODING 8240
SWIDTH 1184 0
DWIDTH 38 0
BBX 34 24 2 0
BITMAP
0780300000
1FC0700000
39C0E00000
78E1C00000
71E1C00000
71E3800000
F1C7000000
E3C7000000
638E000000
7F1C000000
3E3C000000
0038000000
0070000000
0070F01F00
00E3F83F80
01C79C7380
03C71CF1C0
038E1CE3C0
070E3CE380
070E39E380
0E0E39C780
1C0E70C700
380FE0FE00
3007C07C00
ENDCHAR
STARTCHAR guilsinglleft
ENCODING 8249
SWIDTH 413 0
DWIDTH 13 0
BBX 10 13 2 3
BITMAP
00C0
01C0
0780
1E00
3C00
F800
F000
7800
3C00
1C00
0E00
0700
0200
ENDCHAR
STARTCHAR guilsinglright
ENCODING 8250
SWIDTH 416 0
DWIDTH 13 0
BBX 9 13 2 3
BITMAP
3000
3800
1C00
1E00
0F00
0780
0380
0F80
1E00
3800
F000
C000
8000
ENDCHAR
STARTCHAR fraction
ENCODING 8260
SWIDTH 580 0
DWIDTH 19 0
BBX 17 26 1 0
BITMAP
000080
000380
000700
000700
000E00
000E00
001C00
003800
003800
007000
007000
00E000
01C000
01C000
038000
038000
070000
0E0000
0E0000
1C0000
1C0000
380000
700000
700000
E00000
C00000
ENDCHAR
STARTCHAR Euro
ENCODING 8364
SWIDTH 622 0
DWIDTH 20 0
BBX 19 24 2 0
BITMAP
000F80
003FC0
007860
00F060
01E0E0
03C1E0
0783E0
0783C0
0F0380
0F0000
7FF800
3FC000
1C0000
1C0000
3C0000
FFE000
FFC000
3C0000
3C0000
3C0000
1C0600
1E1E00
0FFC00
03F000
ENDCHAR
STARTCHAR trademark
ENCODING 8482
SWIDTH 1084 0
DWIDTH 35 0
BBX 26 13 5 11
BITMAP
7FF8E1C0
FFFBE3C0
66E3E7C0
0E06C7C0
0E07CDC0
1C0DCD80
1C0DDB80
1C19DB80
1819F380
3831F380
3871E380
1C61C3C0
08C08180
ENDCHAR
STARTCHAR Omega
ENCODING 8486
SWIDTH 839 0
DWIDTH 27 0
BBX 23 24 2 0
BITMAP
00FE00
03FF80
0F83E0
1E00F0
3C0078
3C0038
78003C
78003C
70001C
F0001E
F0001E
F0001E
F0001E
70003C
78003C
78003C
3C0078
3C0078
1E00F0
0E00E0
8701C2
E3838E
FFC7FE
FFC7FE
ENDCHAR
STARTCHAR partialdiff
ENCODING 8706
SWIDTH 580 0
DWIDTH 19 0
BBX 17 26 1 0
BITMAP
001800
00FE00
01E700
01C380
01C380
01C380
008380
000380
01F380
07FB80
0F8F80
1F0780
3E0780
3C0700
780F00
780F00
F01E00
F01E00
F01E00
F03C00
E07800
E07800
E0F000
F1E000
7FC000
3F0000
ENDCHAR
STARTCHAR Delta
ENCODING 8710
SWIDTH 663 0
DWIDTH 21 0
BBX 20 19 0 0
BITMAP
003000
007800
007800
00FC00
00DC00
01CE00
018E00
030F00
030700
060780
0E0380
0C03C0
1C01C0
1801E0
3800E0
3000F0
600070
7FFFF0
FFFFE0
ENDCHAR
STARTCHAR product
ENCODING 8719
SWIDTH 667 0
DWIDTH 21 0
BBX 17 27 2 -3
BITMAP
3FFF80
7FFF80
F00380
F00380
F00380
F00380
F00380
F00380
F00380
F00380
F00380
F00380
F00380
F00380
F00380
F00380
F00380
F00380
F00380
F00380
F00380
F00380
F00380
F00380
F00380
F00380
400200
ENDCHAR
STARTCHAR summation
ENCODING 8721
SWIDTH 677 0
DWIDTH 22 0
BBX 19 27 1 -3
BITMAP
1FFFE0
3FFFC0
3C0000
3E0000
1F0000
1F0000
0F8000
07C000
03C000
03E000
01F000
00F000
00F800
007800
007000
00E000
01C000
038000
078000
0F0000
1E0000
1C0000
380000
700000
FFFFC0
FFFFC0
7FFF80
ENDCHAR
STARTCHAR minus
ENCODING 8722
SWIDTH 617 0
DWIDTH 20 0
BBX 16 2 2 11
BITMAP
7FFF
FFFF
ENDCHAR
STARTCHAR radical
ENCODING 8730
SWIDTH 709 0
DWIDTH 23 0
BBX 24 30 1 0
BITMAP
000003
000003
000007
000007
00000F
00000E
00001E
00001C
00003C
000038
000070
000070
0000E0
0001E0
0801C0
1E03C0
3E0380
7E0700
EF0700
0F0E00
070E00
071C00
071800
073800
03B000
03F000
03E000
03E000
03C000
018000
ENDCHAR
STARTCHAR infinity
ENCODING 8734
SWIDTH 681 0
DWIDTH 22 0
BBX 19 9 2 7
BITMAP
3E1F80
7F3FC0
F3F8C0
E0F0E0
C1E0E0
C3E0E0
E7FBC0
7FBFC0
3E1F00
ENDCHAR
STARTCHAR integral
ENCODING 8747
SWIDTH 583 0
DWIDTH 19 0
BBX 25 36 -3 -6
BITMAP
00000E00
00003F00
00007D80
00007180
0000F180
0000E380
0001C780
0001C780
0003C300
00038000
00078000
00078000
00070000
000F0000
000F0000
000E0000
001E0000
001E0000
001C0000
001C0000
003C0000
003C0000
00380000
00780000
00780000
00700000
00F00000
00F00000
38E00000
79E00000
F1C00000
E3C00000
E3800000
47000000
7F000000
3C000000
ENDCHAR
STARTCHAR approxequal
ENCODING 8776
SWIDTH 671 0
DWIDTH 22 0
BBX 18 14 2 4
BITMAP
078040
1FC0C0
3FE0C0
71F380
60FF80
607E00
001800
040000
1F8180
3FC180
77E380
E1FF00
C1FE00
807800
ENDCHAR
STARTCHAR notequal
ENCODING 8800
SWIDTH 617 0
DWIDTH 20 0
BBX 16 20 2 2
BITMAP
0007
000E
001C
001C
0038
0070
7FFF
7FFF
00E0
01C0
0380
0380
7FFF
FFFF
0E00
1C00
1C00
3800
7000
6000
ENDCHAR
STARTCHAR lessequal
ENCODING 8804
SWIDTH 704 0
DWIDTH 23 0
BBX 16 21 2 0
BITMAP
0003
000F
003C
00F8
03E0
0F80
1F00
7C00
F000
7C00
1F00
0F80
03E0
00F8
003C
000F
0002
0000
0000
FFFF
FFFE
ENDCHAR
STARTCHAR greaterequal
ENCODING 8805
SWIDTH 617 0
DWIDTH 20 0
BBX 16 21 2 0
BITMAP
E000
F800
3E00
0F80
03C0
01F0
007C
001F
001F
007C
01F0
03C0
0F80
3E00
7800
E000
8000
0000
0000
FFFF
FFFE
ENDCHAR
STARTCHAR lozenge
ENCODING 9674
SWIDTH 580 0
DWIDTH 19 0
BBX 16 24 1 0
BITMAP
0180
03C0
03C0
07E0
0670
0E70
1C38
1C38
381C
300E
700E
6007
E007
7006
380E
381C
1C1C
1C38
0E30
0670
07E0
03E0
03C0
0180
ENDCHAR
STARTCHAR commaaccent
ENCODING 63171
SWIDTH 250 0
DWIDTH 8 0
BBX 5 7 1 -8
BITMAP
10
78
38
38
38
70
E0
ENDCHAR
STARTCHAR ff
ENCODING 64256
SWIDTH 773 0
DWIDTH 25 0
BBX 30 31 -1 -4
BITMAP
00070070
001F81FC
0039C39C
0079C39C
0071C71C
00F3C73C
00E3CF3C
00E38E38
01E00E00
01C01E00
01C01C00
01C01C00
03CFFF80
03FFFFC0
1FFFFFE0
3F803800
07007800
07007000
07007000
0F00F000
0E00E000
0E00E000
1E01E000
1C01E000
1C01C000
3C03C000
3803C000
78038000
78078000
F0070000
E0060000
ENDCHAR
STARTCHAR fi
ENCODING 64257
SWIDTH 623 0
DWIDTH 20 0
BBX 22 30 -1 -4
BITMAP
0003E0
000FF8
001E38
003C1C
00381C
00703C
00F03C
00E078
00E030
01C000
01CFF0
03FFF0
0FFFF0
1FC0F0
3F80E0
0780E0
0701C0
0701C0
0F01C0
0E0380
0E0380
1E0700
1C0700
1C07E0
3C07E0
3803C0
780000
700000
F00000
E00000
ENDCHAR
STARTCHAR fl
ENCODING 64258
SWIDTH 637 0
DWIDTH 20 0
BBX 22 30 -1 -4
BITMAP
0003F0
000FF8
001E1C
003C1C
00781C
00701C
00F01C
00E038
01E038
01C038
01C078
03F870
07FC70
1FFCF0
1F80E0
0700E0
0701C0
0F01C0
0F03C0
0E0380
0E0380
1E0380
1C0780
1C03F0
3C03E0
3801C0
780000
700000
F00000
E00000
ENDCHAR
STARTCHAR .notdef
ENCODING -1
SWIDTH 896 0
DWIDTH 29 0
BBX 29 28 2 0
BITMAP
00FFFFF8
01FFFFF8
01FFFFF8
03FFFFF8
03FFFFF8
03FFFFF0
07FFFBF0
07E3E1F0
07C383F0
07C30FE0
0FC31FE0
0FC23FE0
0FE27FC0
1FE0FFC0
1FE1FFC0
1FF1FFC0
1FE1FF80
3FC0FF80
3F88FF80
3F186F00
7E3C0F00
7C7C1F00
7EFF7E00
FFFFFE00
FFFFFE00
FFFFFC00
FFFFFC00
FFFFF800
ENDCHAR
ENDFONT
